<?xml version="1.0" encoding="utf-8"?>
<svg version="1.1" xmlns="http://www.w3.org/2000/svg" width="230px" height="265px" viewBox="0 0 230 265">
  <defs>
    <style>
      :root {--brand: #4C8044;}
    </style>
  </defs>
  <g>
    <title>Mark</title>
    <path d="M 108.23 145.358 C 90.629 158.007 66.805 159.86 40.795 161.443 L 60.461 193.797 L 148.488 197.917 C 159.898 181.598 154.407 164.276 150.363 155.609 C 150.363 155.754 160.875 167.167 159.286 180.165 C 179.362 140.159 139.372 125.466 147.33 98.911 C 155.624 112.994 166.619 101.776 182.214 118.117 C 184.17 120.708 192.327 112.423 190.302 109.74 C 189.193 110.953 182.569 105.427 183.514 104.396 L 191.168 107.429 C 194.502 101.305 183.152 96.741 171.96 87.498 C 160.116 77.316 163.655 76.594 151.595 70.167 C 139.177 -14.334 38.799 19.33 25.366 28.427 C 26.667 27.271 69.156 11.811 104.778 29.013 C 108.484 29.077 117.005 28.932 124.804 33.483 C 118.738 32.255 111.95 33.014 111.944 33.04 C 114.33 34.591 116.647 36.322 118.871 38.248 C 120.327 38.032 128.776 39.62 133.47 43.375 C 129.426 42.22 123.215 42.471 123.23 42.422 C 125.165 44.461 127.008 46.683 128.747 49.095 C 132.202 49.571 137.262 51.03 140.98 53.919 C 138.92 52.945 131.41 52.908 131.485 52.945 C 132.415 54.441 133.123 55.969 133.975 57.602 C 135.564 60.923 139.897 75.626 139.608 75.51 C 139.732 75.482 130.474 71.842 125.309 70.6 C 114.911 59.912 98.062 61.313 99.024 61.79 C 103.501 78.11 116.877 78.654 116.877 78.654 C 111.781 108.458 122.384 131.06 108.23 145.358 Z M 158.744 85.765 L 162.572 90.964 C 153.039 92.409 147.335 83.165 147.19 78.977 C 148.721 82.206 155.711 86.27 158.744 85.765 Z M 106.606 66.989 C 114.838 68.145 122.071 71.946 123.432 76.738 C 119.243 77.027 113.449 75.742 112.961 75.149 C 109.495 73.777 106.239 68.878 106.606 66.989 Z M 149.054 104.374 C 155.036 119.19 169.565 108.041 173.982 121.15 C 174.415 132.704 177.881 139.131 185.536 140.286 C 180.842 136.965 180.409 126.638 181.853 120.572 C 165.966 105.407 157.821 115.911 149.054 104.374 Z M 121.554 64.462 C 121.664 64.355 131.664 69.3 131.664 69.3 C 113.38 16.733 46.348 27.91 37.138 31.965 C 49.773 29.655 104.503 24.716 121.554 64.462 Z M 111.3 94.575 C 112.744 128.949 111.403 129.93 110.578 133.426 C 109.422 137.903 105.832 145.428 97.435 146.569 C 98.934 146.552 102.057 142.308 103.79 136.82 C 91.972 150.378 86.314 150.324 76.06 154.368 C 92.235 148.014 112.022 120.052 111.3 94.575 Z" stroke="black" style="stroke-width: 0px;" fill="var(--brand)">
      <title>Goat</title>
    </path>
    <path d="M 230 100 C 230 100 174.065 199.542 173.308 200.001 C 172.719 200.359 57.284 200.296 57.284 200.296 L 0 100.063 L 36.957 35.645 L 46.309 34.926 C 45.869 36.722 8.777 99.329 8.759 100.062 C 8.73 100.946 61.341 192.456 62.196 192.93 C 62.831 193.282 168.094 193.14 168.639 192.785 C 169.548 192.192 230 100 230 100 Z M 49.196 14.274 C 49.196 14.274 56.92 0.322 57.752 0.002 C 58.126 -0.141 150.768 6.97 166.465 7.854 C 151.168 7.62 62.826 7.596 62.307 7.924 C 61.368 8.523 60.484 11.184 59.268 11.874 C 58.766 12.159 49.196 14.274 49.196 14.274 Z" stroke="black" style="stroke-width: 0px;" fill="var(--brand)">
      <title>Moon</title>
    </path>
  </g>
  <path d="M 7.987 218.586 C 7.987 219 7.979 219.532 7.962 220.18 C 7.945 220.829 7.924 221.568 7.898 222.397 C 7.873 223.227 7.843 224.122 7.808 225.081 C 7.774 226.04 7.748 227.038 7.731 228.076 C 8.228 227.782 8.823 227.493 9.516 227.207 C 10.21 226.922 10.937 226.615 11.699 226.287 C 12.461 225.958 13.223 225.604 13.985 225.224 C 14.747 224.844 15.445 224.42 16.079 223.953 C 17.637 222.761 18.805 221.676 19.584 220.699 C 20.364 219.722 20.753 218.82 20.753 217.99 C 20.753 217.643 20.698 217.35 20.586 217.108 C 20.475 216.866 20.342 216.65 20.188 216.46 C 19.794 216.235 19.208 216.044 18.429 215.889 C 17.649 215.733 16.695 215.656 15.565 215.656 C 14.503 215.656 13.437 215.738 12.367 215.902 C 11.297 216.067 10.265 216.273 9.272 216.524 C 8.279 216.775 7.35 217.048 6.485 217.342 C 5.621 217.635 4.855 217.912 4.187 218.171 C 3.519 218.431 2.979 218.66 2.568 218.859 C 2.158 219.057 1.91 219.173 1.824 219.208 C 1.738 219.243 1.64 219.299 1.528 219.377 C 1.417 219.455 1.31 219.494 1.207 219.494 C 0.984 219.494 0.83 219.407 0.745 219.235 C 0.659 219.062 0.633 218.88 0.668 218.689 C 0.531 218.638 0.419 218.538 0.334 218.391 C 0.248 218.244 0.18 218.085 0.128 217.912 C 0.077 217.739 0.043 217.571 0.025 217.406 C 0.008 217.242 0 217.116 0 217.03 C 0 216.684 0.15 216.377 0.449 216.11 C 0.749 215.842 1.139 215.604 1.619 215.396 C 1.738 215.345 1.999 215.224 2.401 215.033 C 2.804 214.843 3.318 214.623 3.942 214.372 C 4.567 214.122 5.274 213.859 6.061 213.582 C 6.849 213.304 7.688 213.05 8.578 212.816 C 9.469 212.584 10.385 212.389 11.327 212.233 C 12.269 212.078 13.202 212 14.127 212 C 14.794 212.017 15.505 212.056 16.258 212.116 C 17.011 212.177 17.756 212.302 18.492 212.493 C 19.229 212.682 19.918 212.95 20.56 213.296 C 21.202 213.642 21.746 214.109 22.191 214.697 C 22.67 215.077 23.094 215.591 23.462 216.239 C 23.83 216.887 24.015 217.67 24.015 218.586 C 24.015 219.225 23.959 219.8 23.848 220.31 C 23.736 220.82 23.638 221.179 23.552 221.386 C 23.107 222.51 22.538 223.478 21.845 224.29 C 21.151 225.103 20.406 225.799 19.61 226.378 C 18.814 226.957 18.013 227.445 17.209 227.842 C 16.404 228.24 15.676 228.569 15.025 228.828 C 15.744 228.828 16.485 228.863 17.247 228.932 C 18.009 229.001 18.763 229.126 19.507 229.308 C 20.252 229.49 20.967 229.753 21.652 230.098 C 22.337 230.445 22.97 230.885 23.552 231.421 C 23.929 231.836 24.272 232.286 24.58 232.77 C 24.837 233.185 25.072 233.672 25.286 234.235 C 25.5 234.796 25.607 235.406 25.607 236.063 C 25.71 236.478 25.762 236.953 25.762 237.489 C 25.762 238.094 25.71 238.768 25.607 239.512 C 25.521 240.168 25.307 240.937 24.965 241.819 C 24.623 242.701 24.092 243.608 23.372 244.542 C 22.653 245.475 21.716 246.387 20.56 247.278 C 19.404 248.168 17.962 248.941 16.233 249.598 C 15.154 250.03 14.169 250.341 13.279 250.531 C 12.389 250.722 11.584 250.817 10.864 250.817 C 10.522 250.817 10.149 250.782 9.747 250.713 C 9.345 250.644 8.968 250.544 8.618 250.415 C 8.266 250.285 7.975 250.125 7.744 249.935 C 7.512 249.746 7.397 249.52 7.397 249.261 C 7.397 249.123 7.354 249.024 7.269 248.963 C 7.183 248.903 7.089 248.829 6.986 248.742 C 6.9 249.037 6.802 249.27 6.691 249.443 C 6.579 249.615 6.464 249.754 6.344 249.858 C 6.207 249.979 6.07 250.065 5.933 250.117 C 5.865 250.117 5.805 250.1 5.753 250.065 C 5.65 250.047 5.573 249.979 5.522 249.858 C 5.453 249.996 5.363 250.138 5.252 250.286 C 5.141 250.432 5.034 250.506 4.931 250.506 C 4.88 250.506 4.807 250.502 4.713 250.493 C 4.619 250.484 4.525 250.367 4.431 250.142 C 4.336 249.917 4.242 249.532 4.148 248.988 C 4.054 248.444 3.968 247.623 3.891 246.525 C 3.814 245.428 3.75 244.006 3.698 242.261 C 3.647 240.514 3.621 238.335 3.621 235.726 C 3.621 234.671 3.621 233.56 3.621 232.393 C 3.621 231.227 3.63 230.077 3.647 228.944 C 3.664 227.812 3.694 226.723 3.737 225.678 C 3.78 224.632 3.84 223.681 3.917 222.826 C 3.994 221.969 4.092 221.252 4.212 220.673 C 4.332 220.094 4.486 219.701 4.674 219.494 C 4.811 219.321 5.055 219.157 5.407 219 C 5.758 218.846 6.104 218.702 6.447 218.572 C 6.789 218.443 7.089 218.34 7.346 218.262 C 7.603 218.184 7.714 218.127 7.68 218.093 C 7.765 218.127 7.838 218.184 7.898 218.262 C 7.958 218.34 7.987 218.448 7.987 218.586 Z M 8.887 231.965 C 8.767 231.965 8.591 231.896 8.361 231.758 C 8.129 231.62 7.877 231.455 7.603 231.265 C 7.551 232.718 7.499 234.17 7.448 235.623 C 7.397 237.073 7.346 238.453 7.294 239.757 C 7.243 241.062 7.205 242.269 7.179 243.374 C 7.153 244.481 7.141 245.405 7.141 246.149 C 7.346 245.821 7.568 245.505 7.808 245.202 C 8.048 244.901 8.283 244.632 8.514 244.399 C 8.746 244.166 8.96 243.98 9.157 243.842 C 9.354 243.703 9.503 243.634 9.606 243.634 C 9.64 243.634 9.675 243.643 9.709 243.661 C 9.743 243.677 9.82 243.747 9.94 243.868 C 9.974 243.868 10.008 243.859 10.043 243.842 C 10.077 243.824 10.111 243.815 10.145 243.815 C 10.282 243.815 10.385 243.876 10.454 243.997 C 10.522 244.118 10.557 244.351 10.557 244.697 C 10.557 244.887 10.505 245.052 10.402 245.19 C 10.299 245.329 10.184 245.454 10.055 245.566 C 9.927 245.678 9.799 245.786 9.671 245.89 C 9.542 245.994 9.452 246.098 9.4 246.201 C 9.537 246.236 9.674 246.262 9.811 246.279 C 9.948 246.296 10.162 246.305 10.454 246.305 C 10.607 246.288 10.92 246.257 11.391 246.215 C 11.862 246.171 12.466 246.041 13.202 245.825 C 13.938 245.609 14.79 245.267 15.757 244.802 C 16.725 244.334 17.782 243.669 18.929 242.805 C 19.905 242.061 20.693 241.301 21.292 240.522 C 21.891 239.745 22.349 239.015 22.666 238.331 C 22.983 237.649 23.193 237.048 23.295 236.529 C 23.399 236.01 23.45 235.639 23.45 235.414 C 23.381 234.775 23.112 234.191 22.641 233.664 C 22.17 233.137 21.545 232.683 20.765 232.303 C 19.987 231.923 19.075 231.629 18.03 231.421 C 16.986 231.214 15.864 231.11 14.666 231.11 C 13.861 231.11 13.151 231.153 12.534 231.24 C 11.918 231.326 11.374 231.425 10.903 231.538 C 10.432 231.651 10.034 231.75 9.709 231.837 C 9.383 231.923 9.109 231.965 8.887 231.965 Z M 34.748 215.242 C 34.748 215.483 34.731 215.958 34.698 216.667 C 34.663 217.376 34.621 218.227 34.569 219.221 C 34.517 220.215 34.462 221.304 34.402 222.488 C 34.342 223.673 34.278 224.857 34.209 226.041 C 34.141 227.225 34.081 228.37 34.029 229.477 C 33.978 230.583 33.944 231.551 33.927 232.381 C 33.893 232.882 33.871 233.435 33.862 234.041 C 33.854 234.644 33.85 235.294 33.85 235.985 C 33.85 236.901 33.854 237.857 33.862 238.85 C 33.871 239.845 33.884 240.826 33.902 241.793 C 33.919 242.761 33.94 243.69 33.965 244.581 C 33.991 245.471 34.012 246.271 34.029 246.979 C 34.047 247.688 34.06 248.281 34.069 248.755 C 34.077 249.231 34.081 249.528 34.081 249.65 C 34.081 249.892 34.042 250.078 33.965 250.208 C 33.889 250.337 33.794 250.424 33.683 250.467 C 33.572 250.51 33.456 250.519 33.336 250.493 C 33.216 250.466 33.113 250.428 33.028 250.376 C 32.925 250.324 32.844 250.263 32.784 250.195 C 32.724 250.126 32.677 250.074 32.642 250.039 C 32.609 250.004 32.579 249.996 32.552 250.013 C 32.527 250.03 32.505 250.1 32.489 250.22 C 32.437 250.67 32.339 251.007 32.193 251.232 C 32.047 251.457 31.893 251.608 31.731 251.686 C 31.568 251.763 31.419 251.785 31.282 251.751 C 31.145 251.716 31.059 251.656 31.025 251.569 C 30.99 251.483 30.935 251.43 30.858 251.412 C 30.78 251.396 30.699 251.383 30.614 251.374 C 30.528 251.366 30.447 251.34 30.369 251.296 C 30.292 251.254 30.246 251.163 30.229 251.025 C 30.092 250.436 30.006 249.689 29.972 248.781 C 29.937 247.874 29.92 246.849 29.92 245.708 C 29.92 244.723 29.929 243.66 29.945 242.519 C 29.963 241.378 29.972 240.212 29.972 239.019 C 29.972 238.327 29.972 237.64 29.972 236.957 C 29.972 236.274 29.955 235.578 29.92 234.87 L 29.92 233.237 C 29.92 231.836 29.955 230.432 30.023 229.023 C 30.091 227.614 30.177 226.261 30.279 224.965 C 30.382 223.669 30.494 222.45 30.614 221.308 C 30.733 220.167 30.836 219.156 30.922 218.274 C 31.007 217.393 31.076 216.675 31.127 216.123 C 31.178 215.569 31.195 215.224 31.179 215.085 C 31.162 214.964 31.174 214.877 31.217 214.826 C 31.26 214.774 31.32 214.744 31.397 214.735 C 31.474 214.727 31.555 214.718 31.641 214.71 C 31.726 214.701 31.804 214.679 31.872 214.645 C 31.992 214.575 32.09 214.554 32.168 214.579 C 32.245 214.606 32.309 214.644 32.36 214.697 C 32.411 214.748 32.458 214.804 32.502 214.864 C 32.544 214.925 32.608 214.955 32.694 214.955 C 32.796 214.939 32.878 214.909 32.938 214.864 C 32.998 214.822 33.049 214.778 33.092 214.735 C 33.135 214.692 33.178 214.653 33.221 214.619 C 33.263 214.583 33.319 214.575 33.388 214.593 C 33.525 214.628 33.657 214.649 33.785 214.657 C 33.914 214.666 33.979 214.645 33.979 214.593 C 34.012 214.454 34.064 214.39 34.132 214.398 C 34.201 214.407 34.287 214.454 34.389 214.541 C 34.492 214.627 34.577 214.718 34.646 214.814 C 34.714 214.909 34.748 215.051 34.748 215.242 Z M 53.962 234.663 C 53.98 235.267 53.928 236.006 53.808 236.88 C 53.688 237.752 53.551 238.686 53.398 239.68 C 53.243 240.674 53.097 241.689 52.961 242.727 C 52.824 243.764 52.755 244.741 52.755 245.657 C 52.755 246.262 52.798 246.836 52.884 247.381 C 52.969 247.925 53.115 248.397 53.321 248.795 C 53.44 249.019 53.504 249.218 53.513 249.391 C 53.522 249.564 53.509 249.715 53.474 249.844 C 53.44 249.974 53.406 250.087 53.371 250.181 C 53.338 250.277 53.338 250.367 53.371 250.454 C 53.406 250.54 53.397 250.64 53.346 250.752 C 53.295 250.864 53.218 250.968 53.115 251.063 C 53.012 251.158 52.897 251.228 52.768 251.271 C 52.64 251.313 52.524 251.3 52.421 251.232 C 52.233 251.11 52.084 251.042 51.972 251.025 C 51.861 251.006 51.767 251.012 51.689 251.037 C 51.612 251.063 51.544 251.093 51.484 251.128 C 51.424 251.163 51.351 251.163 51.265 251.128 C 50.975 250.972 50.658 250.791 50.315 250.583 C 49.973 250.375 49.75 250.151 49.648 249.909 C 49.579 249.805 49.515 249.632 49.455 249.391 C 49.395 249.148 49.344 248.863 49.301 248.535 C 49.258 248.207 49.22 247.853 49.185 247.472 C 49.151 247.091 49.125 246.72 49.109 246.356 C 48.543 247.429 47.94 248.318 47.298 249.027 C 46.655 249.736 46.013 250.303 45.371 250.727 C 44.729 251.15 44.095 251.448 43.47 251.621 C 42.846 251.793 42.276 251.88 41.763 251.88 C 41.232 251.88 40.765 251.81 40.363 251.672 C 39.96 251.533 39.647 251.37 39.425 251.18 C 38.586 250.333 37.991 249.646 37.64 249.118 C 37.289 248.591 37.131 248.164 37.165 247.835 C 37.251 246.729 37.516 245.708 37.961 244.774 C 38.406 243.842 38.963 242.981 39.63 242.195 C 40.298 241.409 41.048 240.7 41.878 240.069 C 42.709 239.438 43.556 238.876 44.421 238.384 C 45.285 237.891 46.137 237.476 46.976 237.139 C 47.815 236.802 48.577 236.529 49.262 236.321 C 49.228 235.389 49.189 234.572 49.147 233.872 C 49.104 233.172 49.039 232.657 48.954 232.329 C 48.697 231.257 48.303 230.458 47.772 229.93 C 47.242 229.403 46.6 229.139 45.846 229.139 C 45.367 229.139 44.883 229.321 44.395 229.683 C 43.907 230.047 43.466 230.54 43.073 231.161 C 42.679 231.783 42.358 232.501 42.11 233.314 C 41.861 234.127 41.728 234.982 41.711 235.88 C 41.711 236.106 41.72 236.322 41.737 236.529 C 41.754 236.737 41.78 236.953 41.814 237.177 C 41.831 237.299 41.792 237.385 41.698 237.437 C 41.604 237.488 41.489 237.528 41.352 237.553 C 41.215 237.579 41.069 237.601 40.915 237.619 C 40.761 237.636 40.633 237.662 40.529 237.696 C 40.444 237.731 40.375 237.753 40.324 237.761 C 40.273 237.77 40.222 237.761 40.17 237.736 C 40.119 237.71 40.055 237.662 39.977 237.592 C 39.9 237.524 39.793 237.437 39.656 237.333 C 39.52 237.229 39.378 237.143 39.233 237.073 C 39.087 237.005 38.958 236.944 38.847 236.893 C 38.736 236.841 38.642 236.793 38.565 236.749 C 38.488 236.707 38.45 236.65 38.45 236.581 C 38.45 235.51 38.685 234.403 39.156 233.262 C 39.626 232.122 40.26 231.08 41.056 230.137 C 41.852 229.196 42.777 228.423 43.83 227.817 C 44.883 227.212 46 226.909 47.182 226.909 C 48.14 226.909 48.971 227.057 49.673 227.35 C 50.375 227.644 50.975 228.025 51.472 228.491 C 51.968 228.958 52.375 229.477 52.692 230.047 C 53.008 230.617 53.256 231.192 53.436 231.771 C 53.616 232.351 53.745 232.895 53.821 233.405 C 53.898 233.916 53.945 234.335 53.962 234.663 Z M 49.314 239.278 C 48.8 239.468 48.235 239.719 47.619 240.029 C 47.002 240.341 46.377 240.709 45.743 241.132 C 45.11 241.555 44.477 242.044 43.843 242.598 C 43.209 243.15 42.619 243.764 42.071 244.437 C 41.42 245.216 40.949 245.907 40.658 246.513 C 40.367 247.118 40.187 247.631 40.119 248.054 C 40.05 248.479 40.067 248.812 40.17 249.054 C 40.273 249.295 40.393 249.443 40.529 249.495 C 41.06 249.702 41.612 249.723 42.186 249.559 C 42.76 249.395 43.333 249.101 43.907 248.677 C 44.481 248.254 45.037 247.745 45.576 247.148 C 46.116 246.551 46.625 245.937 47.105 245.306 C 47.584 244.675 48.012 244.054 48.389 243.44 C 48.766 242.826 49.074 242.294 49.314 241.845 L 49.314 239.278 Z M 76.637 229.943 C 76.586 230.03 76.539 230.103 76.497 230.164 C 76.454 230.225 76.398 230.28 76.33 230.333 C 76.261 230.384 76.175 230.449 76.073 230.526 C 75.97 230.604 75.841 230.713 75.687 230.852 C 75.396 231.076 74.908 231.504 74.224 232.135 C 73.539 232.766 72.742 233.521 71.834 234.403 C 70.927 235.285 69.956 236.249 68.92 237.295 C 67.884 238.339 66.869 239.386 65.876 240.432 C 64.883 241.478 63.958 242.477 63.103 243.427 C 62.246 244.378 61.544 245.208 60.996 245.916 C 61.681 245.795 62.473 245.674 63.372 245.553 C 64.271 245.432 65.2 245.333 66.159 245.255 C 67.117 245.177 68.072 245.113 69.022 245.06 C 69.972 245.009 70.841 244.983 71.629 244.983 C 72.674 244.983 73.479 245.035 74.044 245.138 C 74.335 245.173 74.588 245.272 74.801 245.437 C 75.015 245.6 75.195 245.778 75.341 245.968 C 75.486 246.159 75.597 246.348 75.674 246.538 C 75.752 246.728 75.791 246.875 75.791 246.979 C 75.791 247.135 75.799 247.281 75.816 247.419 C 75.833 247.558 75.828 247.688 75.803 247.809 C 75.777 247.93 75.713 248.042 75.611 248.145 C 75.507 248.25 75.336 248.328 75.097 248.38 C 74.96 248.414 74.801 248.414 74.621 248.38 C 74.442 248.345 74.267 248.31 74.095 248.276 C 73.924 248.24 73.765 248.215 73.62 248.198 C 73.474 248.181 73.376 248.207 73.324 248.276 C 73.136 248.518 73.098 248.726 73.209 248.898 C 73.32 249.071 73.496 249.269 73.735 249.495 C 73.855 249.581 73.89 249.68 73.838 249.793 C 73.787 249.905 73.671 249.996 73.491 250.065 C 73.311 250.134 73.072 250.169 72.772 250.169 C 72.473 250.169 72.143 250.117 71.784 250.013 C 71.629 249.961 71.368 249.917 71 249.883 C 70.632 249.848 70.195 249.819 69.69 249.793 C 69.185 249.767 68.62 249.745 67.995 249.727 C 67.37 249.71 66.724 249.702 66.055 249.702 C 65.2 249.702 64.331 249.715 63.449 249.74 C 62.567 249.767 61.741 249.806 60.97 249.858 C 60.2 249.909 59.515 249.979 58.916 250.065 C 58.316 250.151 57.871 250.255 57.58 250.376 C 57.238 250.549 56.977 250.623 56.796 250.597 C 56.617 250.571 56.425 250.462 56.219 250.271 C 56.133 250.169 56.043 250.06 55.949 249.948 C 55.855 249.836 55.787 249.727 55.743 249.623 C 55.701 249.52 55.701 249.42 55.743 249.326 C 55.787 249.231 55.894 249.158 56.065 249.105 C 56.219 249.071 56.3 249.006 56.309 248.911 C 56.317 248.816 56.295 248.717 56.244 248.613 C 56.193 248.509 56.133 248.401 56.065 248.289 C 55.996 248.177 55.962 248.077 55.962 247.991 C 55.979 247.834 56.223 247.467 56.694 246.888 C 57.165 246.309 57.79 245.591 58.569 244.736 C 59.348 243.881 60.247 242.922 61.266 241.858 C 62.285 240.795 63.346 239.701 64.451 238.578 C 65.555 237.454 66.664 236.33 67.777 235.207 C 68.89 234.083 69.943 233.037 70.936 232.069 C 70.439 232.018 69.852 231.979 69.176 231.953 C 68.5 231.927 67.794 231.915 67.058 231.915 C 66.389 231.915 65.73 231.923 65.08 231.94 C 64.429 231.957 63.817 231.978 63.243 232.005 C 62.67 232.031 62.165 232.061 61.728 232.095 C 61.292 232.13 60.962 232.156 60.74 232.174 C 60.499 232.207 60.328 232.211 60.226 232.186 C 60.122 232.16 60.054 232.117 60.02 232.056 C 59.986 231.995 59.964 231.927 59.956 231.849 C 59.947 231.771 59.926 231.707 59.892 231.655 C 59.841 231.603 59.776 231.551 59.699 231.499 C 59.622 231.447 59.558 231.387 59.506 231.318 C 59.455 231.248 59.421 231.175 59.403 231.097 C 59.386 231.019 59.412 230.937 59.48 230.852 C 59.549 230.782 59.562 230.721 59.52 230.669 C 59.476 230.617 59.421 230.57 59.353 230.526 C 59.284 230.483 59.215 230.428 59.146 230.358 C 59.078 230.289 59.044 230.202 59.044 230.098 C 59.044 229.909 59.049 229.727 59.057 229.554 C 59.065 229.382 59.138 229.278 59.275 229.242 C 59.412 229.209 59.489 229.122 59.506 228.984 C 59.523 228.846 59.652 228.707 59.892 228.569 C 60.114 228.431 60.457 228.319 60.919 228.232 C 61.381 228.145 61.925 228.08 62.55 228.038 C 63.175 227.993 63.864 227.963 64.618 227.947 C 65.371 227.93 66.15 227.921 66.955 227.921 C 67.759 227.921 68.568 227.925 69.382 227.933 C 70.196 227.942 70.975 227.955 71.719 227.972 C 72.464 227.989 73.158 228.003 73.8 228.011 C 74.442 228.02 74.994 228.025 75.456 228.025 C 75.61 228.025 75.773 228.093 75.944 228.232 C 76.116 228.37 76.27 228.535 76.407 228.724 C 76.544 228.915 76.638 229.122 76.689 229.346 C 76.74 229.571 76.723 229.77 76.637 229.943 Z M 85.117 216.019 C 85.134 216.364 85.121 216.749 85.079 217.173 C 85.036 217.596 84.967 218.007 84.874 218.405 C 84.779 218.801 84.651 219.156 84.488 219.468 C 84.326 219.779 84.133 219.995 83.911 220.116 C 83.345 220.41 82.849 220.557 82.42 220.557 C 82.078 220.557 81.783 220.474 81.534 220.31 C 81.286 220.146 81.042 219.96 80.802 219.752 C 80.46 219.476 80.173 219.113 79.942 218.663 C 79.711 218.214 79.595 217.783 79.595 217.368 C 79.595 217.039 79.651 216.637 79.762 216.161 C 79.873 215.686 80.015 215.224 80.186 214.773 C 80.357 214.324 80.541 213.914 80.738 213.542 C 80.935 213.171 81.128 212.916 81.316 212.777 C 81.607 212.535 81.877 212.402 82.125 212.376 C 82.373 212.35 82.575 212.362 82.729 212.415 C 83.105 212.501 83.439 212.609 83.73 212.738 C 84.022 212.868 84.266 213.067 84.463 213.335 C 84.66 213.603 84.809 213.953 84.912 214.386 C 85.014 214.818 85.083 215.362 85.117 216.019 Z M 83.011 227.61 C 83.097 227.696 83.161 227.981 83.203 228.466 C 83.247 228.95 83.268 229.581 83.268 230.358 C 83.268 230.877 83.259 231.439 83.242 232.044 C 83.225 232.649 83.204 233.27 83.178 233.911 C 83.153 234.55 83.122 235.194 83.088 235.842 C 83.054 236.491 83.028 237.109 83.011 237.696 C 82.96 238.665 82.93 239.559 82.921 240.38 C 82.912 241.202 82.908 241.992 82.908 242.752 C 82.908 243.756 82.917 244.671 82.934 245.5 C 82.951 246.331 82.96 247.023 82.96 247.576 C 82.96 248.181 82.938 248.643 82.896 248.963 C 82.853 249.283 82.763 249.46 82.626 249.495 C 82.472 249.528 82.344 249.602 82.24 249.714 C 82.138 249.826 82.044 249.935 81.958 250.039 C 81.873 250.142 81.774 250.233 81.663 250.311 C 81.552 250.389 81.419 250.411 81.264 250.376 C 81.179 250.358 81.033 250.281 80.828 250.142 C 80.623 250.004 80.404 249.835 80.173 249.636 C 79.942 249.438 79.724 249.208 79.518 248.95 C 79.313 248.691 79.176 248.422 79.108 248.145 C 79.073 248.008 79.043 247.731 79.018 247.317 C 78.992 246.902 78.97 246.4 78.953 245.812 C 78.936 245.225 78.919 244.573 78.901 243.855 C 78.884 243.137 78.872 242.411 78.863 241.676 C 78.855 240.941 78.851 240.22 78.851 239.512 C 78.851 238.803 78.851 238.163 78.851 237.592 C 78.851 236.711 78.881 235.812 78.941 234.896 C 79 233.98 79.068 233.124 79.146 232.329 C 79.223 231.534 79.3 230.837 79.377 230.242 C 79.454 229.645 79.509 229.226 79.544 228.984 C 79.612 228.569 79.685 228.245 79.762 228.011 C 79.839 227.778 79.925 227.61 80.019 227.506 C 80.113 227.402 80.207 227.337 80.301 227.311 C 80.396 227.286 80.494 227.264 80.597 227.246 C 80.802 227.212 81.038 227.204 81.303 227.22 C 81.568 227.237 81.821 227.264 82.061 227.298 C 82.301 227.333 82.51 227.381 82.691 227.441 C 82.87 227.502 82.977 227.558 83.011 227.61 Z M 103.198 248.742 C 103.198 248.95 103.125 249.179 102.98 249.43 C 102.834 249.68 102.624 249.805 102.35 249.805 C 102.197 249.805 102.077 249.762 101.991 249.676 C 101.906 249.589 101.82 249.546 101.734 249.546 C 101.614 249.546 101.499 249.589 101.387 249.676 C 101.276 249.762 101.092 249.805 100.835 249.805 C 100.492 249.805 100.197 249.68 99.949 249.43 C 99.701 249.179 99.499 248.859 99.345 248.47 C 99.191 248.081 99.076 247.658 98.999 247.199 C 98.921 246.742 98.883 246.314 98.883 245.916 C 98.883 245.138 98.913 244.252 98.973 243.258 C 99.033 242.264 99.101 241.244 99.178 240.198 C 99.256 239.153 99.324 238.111 99.384 237.073 C 99.444 236.037 99.473 235.078 99.473 234.195 C 99.473 233.02 99.397 232.103 99.243 231.447 C 99.088 230.791 98.814 230.462 98.42 230.462 C 98.044 230.513 97.659 230.842 97.265 231.447 C 96.871 232.052 96.469 232.825 96.057 233.768 C 95.647 234.71 95.244 235.773 94.851 236.957 C 94.457 238.141 94.076 239.351 93.708 240.588 C 93.339 241.823 92.993 243.025 92.668 244.192 C 92.342 245.359 92.051 246.4 91.795 247.317 C 91.538 248.232 91.315 248.971 91.126 249.534 C 90.938 250.095 90.81 250.376 90.742 250.376 C 90.604 250.376 90.501 250.346 90.433 250.286 C 90.364 250.225 90.3 250.16 90.24 250.091 C 90.181 250.022 90.108 249.957 90.022 249.896 C 89.937 249.835 89.808 249.805 89.637 249.805 C 89.483 249.805 89.38 249.822 89.328 249.858 C 89.277 249.892 89.217 249.935 89.148 249.987 C 89.08 250.039 88.995 250.082 88.891 250.117 C 88.789 250.151 88.609 250.169 88.352 250.169 C 88.044 250.169 87.74 250.091 87.441 249.935 C 87.141 249.78 86.992 249.538 86.992 249.208 C 86.992 249.001 87.026 248.574 87.094 247.925 C 87.163 247.277 87.244 246.482 87.338 245.54 C 87.432 244.598 87.535 243.544 87.646 242.377 C 87.757 241.21 87.86 240.004 87.955 238.759 C 88.048 237.515 88.13 236.271 88.199 235.026 C 88.267 233.78 88.301 232.596 88.301 231.473 C 88.301 230.92 88.292 230.405 88.275 229.93 C 88.259 229.454 88.25 229.001 88.25 228.569 C 88.25 228.465 88.301 228.413 88.404 228.413 C 88.61 228.413 88.768 228.452 88.879 228.53 C 88.991 228.607 89.072 228.689 89.123 228.776 C 89.174 228.863 89.204 228.944 89.213 229.023 C 89.222 229.101 89.235 229.139 89.252 229.139 C 89.303 229.139 89.363 229.109 89.432 229.048 C 89.5 228.988 89.572 228.923 89.649 228.855 C 89.727 228.785 89.8 228.72 89.868 228.66 C 89.936 228.599 89.996 228.569 90.048 228.569 L 90.305 228.569 C 90.562 228.569 90.741 228.53 90.844 228.452 C 90.946 228.374 91.019 228.288 91.062 228.192 C 91.105 228.097 91.135 228.011 91.152 227.933 C 91.169 227.856 91.22 227.817 91.306 227.817 C 91.357 227.817 91.43 227.856 91.525 227.933 C 91.619 228.011 91.713 228.141 91.807 228.323 C 91.901 228.504 91.983 228.742 92.052 229.035 C 92.12 229.329 92.154 229.683 92.154 230.098 C 92.154 230.652 92.133 231.352 92.09 232.199 C 92.047 233.046 91.995 233.949 91.935 234.908 C 91.875 235.868 91.82 236.836 91.768 237.812 C 91.717 238.79 91.683 239.676 91.666 240.471 C 91.854 239.728 92.081 238.902 92.347 237.994 C 92.612 237.087 92.92 236.167 93.272 235.233 C 93.622 234.3 94.003 233.388 94.414 232.497 C 94.825 231.607 95.27 230.816 95.75 230.125 C 96.229 229.433 96.734 228.876 97.265 228.452 C 97.796 228.029 98.352 227.817 98.934 227.817 C 99.859 227.817 100.617 227.989 101.207 228.336 C 101.798 228.682 102.265 229.156 102.607 229.761 C 102.95 230.367 103.185 231.076 103.313 231.887 C 103.442 232.7 103.507 233.573 103.507 234.507 C 103.507 235.303 103.472 236.137 103.403 237.009 C 103.335 237.882 103.262 238.754 103.185 239.628 C 103.108 240.501 103.04 241.361 102.98 242.208 C 102.92 243.055 102.89 243.851 102.89 244.594 C 102.89 245.509 102.941 246.335 103.044 247.07 C 103.147 247.805 103.198 248.362 103.198 248.742 Z M 117.038 248.691 C 118.066 248.691 119.089 248.785 120.107 248.976 C 121.126 249.166 122.047 249.486 122.869 249.935 C 123.691 250.385 124.355 250.976 124.86 251.711 C 125.365 252.446 125.617 253.367 125.617 254.473 C 125.617 255.286 125.429 256.107 125.052 256.937 C 124.675 257.765 124.153 258.569 123.485 259.347 C 122.817 260.126 122.034 260.861 121.135 261.551 C 120.236 262.243 119.264 262.845 118.22 263.354 C 117.175 263.864 116.088 264.266 114.958 264.559 C 113.828 264.854 112.698 265 111.568 265 C 110.643 265 109.774 264.901 108.961 264.702 C 108.148 264.503 107.437 264.205 106.829 263.808 C 106.221 263.41 105.737 262.913 105.378 262.317 C 105.019 261.72 104.839 261.016 104.839 260.204 C 104.839 259.408 104.993 258.661 105.301 257.961 C 105.609 257.261 106.016 256.617 106.521 256.029 C 107.026 255.441 107.604 254.909 108.255 254.434 C 108.905 253.958 109.577 253.561 110.271 253.241 C 110.964 252.922 111.645 252.675 112.312 252.503 C 112.98 252.329 113.588 252.243 114.136 252.243 C 114.427 252.277 114.624 252.317 114.727 252.359 C 114.829 252.403 114.881 252.451 114.881 252.503 C 114.881 252.554 114.855 252.619 114.804 252.696 C 114.753 252.775 114.727 252.84 114.727 252.891 C 114.761 252.995 114.796 253.115 114.83 253.254 C 114.864 253.392 114.881 253.53 114.881 253.669 C 114.881 253.841 114.851 253.993 114.791 254.123 C 114.731 254.252 114.607 254.335 114.418 254.369 C 113.699 254.542 112.908 254.836 112.043 255.251 C 111.178 255.666 110.365 256.154 109.603 256.716 C 108.841 257.278 108.203 257.883 107.689 258.531 C 107.176 259.179 106.91 259.831 106.893 260.488 C 106.893 260.799 107.039 261.024 107.329 261.163 C 107.621 261.301 108.032 261.37 108.562 261.37 C 109.213 261.37 109.992 261.275 110.9 261.085 C 111.807 260.895 112.749 260.623 113.725 260.268 C 114.701 259.914 115.664 259.482 116.614 258.972 C 117.565 258.462 118.421 257.887 119.183 257.248 C 119.945 256.608 120.557 255.916 121.02 255.173 C 121.482 254.43 121.713 253.634 121.713 252.787 C 121.713 252.372 121.632 252.048 121.469 251.815 C 121.306 251.582 121.118 251.404 120.904 251.283 C 120.69 251.163 120.467 251.089 120.236 251.063 C 120.005 251.038 119.812 251.025 119.658 251.025 C 118.442 251.025 117.201 251.098 115.934 251.245 C 114.667 251.391 113.515 251.547 112.479 251.711 C 111.443 251.876 110.592 252.031 109.924 252.178 C 109.256 252.325 108.905 252.399 108.871 252.399 C 108.494 252.399 108.147 252.321 107.831 252.165 C 107.514 252.01 107.244 251.811 107.022 251.569 C 106.799 251.326 106.624 251.046 106.495 250.727 C 106.367 250.407 106.303 250.082 106.303 249.754 C 106.303 249.494 106.457 249.119 106.765 248.626 C 107.073 248.133 107.475 247.601 107.972 247.031 C 108.469 246.46 109.038 245.899 109.68 245.346 C 110.322 244.793 110.969 244.334 111.619 243.971 C 111.037 243.66 110.514 243.279 110.052 242.83 C 109.59 242.381 109.2 241.897 108.884 241.378 C 108.567 240.86 108.323 240.311 108.152 239.732 C 107.98 239.152 107.895 238.561 107.895 237.956 C 107.895 236.78 108.057 235.739 108.382 234.831 C 108.708 233.924 109.136 233.132 109.667 232.459 C 110.198 231.784 110.793 231.222 111.452 230.773 C 112.111 230.324 112.766 229.96 113.417 229.683 C 114.068 229.408 114.684 229.213 115.266 229.101 C 115.848 228.988 116.336 228.932 116.73 228.932 C 116.919 228.932 117.077 228.94 117.205 228.958 C 117.334 228.976 117.45 229.001 117.552 229.035 C 117.98 228.344 118.473 227.605 119.029 226.818 C 119.585 226.032 120.159 225.254 120.75 224.484 C 121.341 223.715 121.931 222.981 122.522 222.28 C 123.113 221.581 123.652 220.959 124.141 220.414 C 124.628 219.87 125.043 219.437 125.386 219.117 C 125.728 218.797 125.96 218.638 126.08 218.638 C 126.233 218.638 126.422 218.738 126.644 218.937 C 126.867 219.135 127.081 219.36 127.287 219.61 C 127.492 219.86 127.668 220.103 127.813 220.336 C 127.958 220.57 128.031 220.73 128.031 220.815 C 128.031 220.902 127.997 220.98 127.929 221.05 C 127.86 221.118 127.826 221.179 127.826 221.231 C 127.826 221.317 127.873 221.391 127.967 221.452 C 128.061 221.511 128.202 221.585 128.391 221.672 C 128.426 221.706 128.451 221.723 128.468 221.723 C 128.485 221.723 128.493 221.74 128.493 221.776 C 128.493 221.845 128.382 221.961 128.159 222.126 C 127.937 222.289 127.577 222.575 127.081 222.981 C 126.585 223.387 125.943 223.953 125.155 224.68 C 124.367 225.406 123.4 226.365 122.252 227.557 C 121.978 227.817 121.696 228.137 121.405 228.517 C 121.114 228.897 120.797 229.304 120.454 229.736 C 120.899 229.977 121.362 230.297 121.841 230.695 C 122.321 231.093 122.753 231.555 123.138 232.082 C 123.524 232.609 123.841 233.21 124.089 233.884 C 124.337 234.559 124.461 235.285 124.461 236.063 C 124.461 237.723 124.187 239.114 123.639 240.237 C 123.091 241.361 122.381 242.264 121.507 242.947 C 120.634 243.63 119.658 244.118 118.58 244.412 C 117.501 244.706 116.439 244.853 115.395 244.853 C 115.138 244.853 114.893 244.844 114.662 244.827 C 114.432 244.81 114.205 244.784 113.982 244.749 C 113.589 245.009 113.143 245.329 112.646 245.708 C 112.15 246.089 111.662 246.504 111.182 246.953 C 110.703 247.402 110.262 247.861 109.859 248.327 C 109.457 248.793 109.153 249.235 108.948 249.65 C 109.633 249.632 110.292 249.576 110.925 249.482 C 111.559 249.386 112.197 249.278 112.839 249.157 C 113.481 249.037 114.145 248.929 114.83 248.833 C 115.515 248.738 116.251 248.691 117.038 248.691 Z M 116.242 232.122 C 116.242 231.775 116.439 231.188 116.833 230.358 C 116.028 230.617 115.309 231.006 114.675 231.525 C 114.042 232.044 113.503 232.631 113.058 233.288 C 112.612 233.945 112.269 234.65 112.03 235.402 C 111.79 236.154 111.67 236.901 111.67 237.644 C 111.67 238.18 111.734 238.695 111.863 239.188 C 111.991 239.68 112.193 240.12 112.467 240.51 C 112.741 240.899 113.096 241.21 113.532 241.444 C 113.969 241.677 114.504 241.793 115.138 241.793 C 115.823 241.793 116.435 241.668 116.975 241.417 C 117.513 241.166 117.989 240.838 118.4 240.432 C 118.811 240.025 119.157 239.572 119.44 239.07 C 119.722 238.569 119.954 238.072 120.134 237.58 C 120.313 237.087 120.446 236.624 120.531 236.192 C 120.617 235.76 120.66 235.415 120.66 235.155 C 120.66 234.118 120.493 233.31 120.159 232.73 C 119.825 232.152 119.436 231.715 118.991 231.421 C 118.751 231.715 118.502 231.995 118.245 232.264 C 117.989 232.531 117.723 232.804 117.449 233.081 C 117.415 233.115 117.364 233.132 117.295 233.132 C 117.244 233.132 117.201 233.107 117.167 233.054 C 117.132 233.003 117.072 232.978 116.987 232.978 C 116.935 232.978 116.884 233.003 116.833 233.054 C 116.782 233.107 116.713 233.132 116.628 233.132 C 116.508 233.132 116.414 233.064 116.345 232.925 C 116.277 232.787 116.242 232.519 116.242 232.122 Z M 157.083 214.541 C 156.518 214.541 155.795 214.645 154.913 214.852 C 154.031 215.059 153.094 215.422 152.101 215.941 C 151.108 216.46 150.115 217.147 149.121 218.003 C 148.128 218.858 147.234 219.934 146.437 221.231 C 145.641 222.528 144.99 224.061 144.485 225.834 C 143.98 227.605 143.728 229.666 143.728 232.018 C 143.728 233.919 143.92 235.609 144.305 237.087 C 144.691 238.565 145.209 239.857 145.86 240.963 C 146.51 242.07 147.259 243.008 148.107 243.777 C 148.954 244.546 149.845 245.168 150.778 245.644 C 151.711 246.119 152.645 246.46 153.578 246.668 C 154.511 246.875 155.397 246.979 156.236 246.979 C 156.424 246.979 156.608 246.979 156.788 246.979 C 156.968 246.979 157.152 246.962 157.34 246.928 C 157.7 246.824 158.123 246.686 158.612 246.513 C 159.1 246.34 159.609 246.106 160.14 245.812 C 160.671 245.518 161.193 245.155 161.707 244.724 C 162.22 244.291 162.687 243.769 163.106 243.155 C 163.526 242.541 163.873 241.837 164.147 241.041 C 164.421 240.246 164.575 239.33 164.609 238.293 C 164.626 237.342 164.519 236.603 164.288 236.076 C 164.057 235.548 163.813 235.146 163.556 234.87 L 162.118 235.051 C 161.365 235.155 160.594 235.302 159.806 235.493 C 159.019 235.682 158.274 235.872 157.572 236.063 C 156.87 236.253 156.236 236.417 155.671 236.556 C 155.106 236.694 154.661 236.754 154.336 236.736 C 154.079 236.719 153.839 236.677 153.617 236.607 C 153.411 236.555 153.201 236.473 152.987 236.361 C 152.773 236.249 152.597 236.088 152.46 235.88 C 152.375 235.933 152.306 235.959 152.255 235.959 C 152.204 235.959 152.161 235.951 152.127 235.933 C 152.075 235.916 152.041 235.881 152.023 235.83 C 152.007 235.777 151.99 235.717 151.973 235.648 C 151.938 235.475 151.921 235.241 151.921 234.947 C 151.836 234.947 151.741 234.913 151.639 234.844 C 151.587 234.809 151.544 234.767 151.51 234.714 C 151.425 234.576 151.348 234.438 151.279 234.3 C 151.21 234.161 151.218 234.04 151.304 233.936 C 151.339 233.867 151.484 233.759 151.741 233.613 C 151.998 233.465 152.435 233.288 153.051 233.081 C 153.667 232.874 154.502 232.635 155.556 232.368 C 156.608 232.099 157.957 231.802 159.601 231.473 C 161.724 231.076 163.565 230.807 165.123 230.669 C 166.681 230.532 167.948 230.462 168.924 230.462 C 169.472 230.462 169.917 230.475 170.26 230.501 C 170.602 230.526 170.859 230.557 171.03 230.592 C 171.424 230.678 171.74 230.803 171.981 230.968 C 172.22 231.131 172.408 231.283 172.545 231.421 C 172.614 231.491 172.683 231.576 172.751 231.68 C 172.871 231.836 173.016 232.122 173.187 232.537 C 173.376 232.605 173.505 232.709 173.573 232.847 C 173.607 232.916 173.616 232.977 173.598 233.028 C 173.564 233.185 173.522 233.392 173.471 233.651 C 173.419 233.911 173.341 234.041 173.239 234.041 C 173.188 234.058 173.012 234.074 172.713 234.091 C 172.413 234.109 172.015 234.136 171.518 234.17 C 171.022 234.204 170.452 234.243 169.81 234.286 C 169.168 234.329 168.487 234.386 167.768 234.455 C 168.111 234.852 168.402 235.328 168.641 235.88 C 168.881 236.434 169.044 237.039 169.13 237.696 C 169.249 238.543 169.168 239.442 168.885 240.393 C 168.603 241.344 168.166 242.286 167.575 243.22 C 166.984 244.153 166.244 245.047 165.354 245.903 C 164.464 246.759 163.466 247.511 162.362 248.159 C 161.257 248.808 160.054 249.321 158.753 249.702 C 157.452 250.082 156.091 250.271 154.67 250.271 C 153.848 250.271 152.987 250.212 152.088 250.091 C 151.189 249.97 150.269 249.758 149.327 249.455 C 148.385 249.153 147.431 248.751 146.463 248.25 C 145.496 247.749 144.533 247.117 143.574 246.356 C 141.741 244.922 140.38 243.068 139.49 240.795 C 138.599 238.521 138.171 235.734 138.205 232.432 C 138.205 231.032 138.432 229.581 138.886 228.076 C 139.34 226.572 139.982 225.099 140.812 223.655 C 141.643 222.212 142.636 220.838 143.792 219.532 C 144.948 218.228 146.232 217.073 147.644 216.071 C 149.057 215.068 150.581 214.259 152.217 213.647 C 153.852 213.033 155.56 212.692 157.34 212.622 C 157.905 212.622 158.56 212.665 159.306 212.752 C 160.05 212.838 160.821 212.98 161.617 213.179 C 162.413 213.378 163.196 213.633 163.967 213.944 C 164.738 214.255 165.444 214.636 166.086 215.085 C 166.728 215.534 167.263 216.057 167.692 216.654 C 168.119 217.25 168.384 217.928 168.488 218.689 C 168.607 219.571 168.551 220.366 168.321 221.075 C 168.089 221.784 167.772 222.38 167.37 222.864 C 166.968 223.348 166.536 223.715 166.073 223.966 C 165.61 224.217 165.208 224.334 164.866 224.317 C 164.626 224.472 164.42 224.584 164.249 224.653 C 164.078 224.722 163.924 224.766 163.787 224.783 C 163.633 224.817 163.505 224.817 163.401 224.783 C 163.282 224.732 163.188 224.662 163.119 224.575 C 163.051 224.489 163.004 224.389 162.978 224.277 C 162.952 224.165 162.982 224.014 163.068 223.824 C 162.691 224.239 162.379 224.541 162.131 224.731 C 161.882 224.921 161.681 225.052 161.527 225.12 C 161.339 225.189 161.193 225.207 161.09 225.172 C 160.936 225.069 160.906 224.974 161 224.887 C 161.094 224.8 161.253 224.671 161.475 224.498 C 161.698 224.325 161.955 224.087 162.246 223.785 C 162.537 223.482 162.794 223.072 163.017 222.554 C 163.12 222.19 163.218 221.775 163.312 221.308 C 163.406 220.842 163.453 220.357 163.453 219.856 C 163.453 218.906 163.282 218.094 162.939 217.418 C 162.597 216.745 162.139 216.192 161.565 215.76 C 160.992 215.328 160.32 215.017 159.549 214.826 C 158.779 214.636 157.957 214.541 157.083 214.541 Z M 193.269 238.915 C 193.269 240.73 193.008 242.364 192.486 243.815 C 191.964 245.268 191.254 246.504 190.355 247.523 C 189.456 248.544 188.416 249.33 187.234 249.883 C 186.052 250.436 184.803 250.713 183.484 250.713 C 182.936 250.713 182.336 250.648 181.686 250.518 C 181.035 250.389 180.384 250.177 179.734 249.883 C 179.083 249.589 178.45 249.2 177.833 248.717 C 177.217 248.232 176.669 247.637 176.19 246.928 C 175.71 246.219 175.329 245.389 175.047 244.437 C 174.764 243.487 174.631 242.39 174.648 241.145 C 174.648 239.728 174.819 238.435 175.162 237.268 C 175.505 236.101 175.946 235.055 176.485 234.132 C 177.024 233.206 177.636 232.406 178.321 231.733 C 179.006 231.059 179.691 230.492 180.376 230.034 C 181.061 229.575 181.72 229.234 182.353 229.01 C 182.987 228.785 183.535 228.656 183.997 228.62 C 184.237 228.603 184.344 228.63 184.319 228.698 C 184.293 228.768 184.229 228.846 184.125 228.932 C 184.023 229.018 183.933 229.105 183.856 229.192 C 183.779 229.278 183.81 229.33 183.946 229.346 C 184.066 229.382 184.164 229.416 184.242 229.451 C 184.319 229.485 184.4 229.528 184.486 229.581 L 184.691 229.346 C 184.811 229.26 184.927 229.217 185.038 229.217 C 185.149 229.217 185.248 229.23 185.333 229.255 C 185.419 229.282 185.487 229.295 185.539 229.295 C 185.59 229.295 185.624 229.243 185.641 229.139 C 185.675 228.95 185.74 228.842 185.834 228.815 C 185.928 228.789 186.146 228.776 186.488 228.776 C 186.694 228.776 187.007 228.836 187.426 228.958 C 187.846 229.079 188.308 229.287 188.813 229.581 C 189.318 229.874 189.832 230.267 190.355 230.76 C 190.877 231.252 191.356 231.874 191.792 232.627 C 192.229 233.378 192.585 234.273 192.858 235.311 C 193.132 236.348 193.269 237.549 193.269 238.915 Z M 183.997 231.318 C 183.398 231.68 182.807 232.173 182.225 232.796 C 181.643 233.418 181.116 234.135 180.646 234.947 C 180.175 235.76 179.794 236.668 179.503 237.67 C 179.211 238.673 179.066 239.728 179.066 240.834 C 179.066 242.026 179.173 243.107 179.387 244.075 C 179.601 245.043 179.914 245.869 180.325 246.551 C 180.736 247.235 181.236 247.762 181.827 248.133 C 182.418 248.505 183.09 248.691 183.843 248.691 C 184.511 248.691 185.174 248.5 185.834 248.12 C 186.493 247.74 187.079 247.169 187.593 246.409 C 188.107 245.648 188.522 244.706 188.839 243.582 C 189.156 242.458 189.314 241.153 189.314 239.666 C 189.314 238.163 189.117 236.901 188.723 235.88 C 188.329 234.861 187.888 234.036 187.401 233.405 C 186.913 232.774 186.446 232.325 186.001 232.056 C 185.556 231.788 185.282 231.655 185.178 231.655 C 184.939 231.655 184.755 231.655 184.626 231.655 C 184.498 231.655 184.288 231.542 183.997 231.318 Z M 212.381 234.663 C 212.397 235.267 212.346 236.006 212.226 236.88 C 212.106 237.752 211.97 238.686 211.815 239.68 C 211.661 240.674 211.516 241.689 211.378 242.727 C 211.241 243.764 211.173 244.741 211.173 245.657 C 211.173 246.262 211.216 246.836 211.301 247.381 C 211.387 247.925 211.533 248.397 211.738 248.795 C 211.858 249.019 211.922 249.218 211.93 249.391 C 211.939 249.564 211.926 249.715 211.892 249.844 C 211.858 249.974 211.824 250.087 211.79 250.181 C 211.755 250.277 211.755 250.367 211.79 250.454 C 211.824 250.54 211.815 250.64 211.763 250.752 C 211.712 250.864 211.635 250.968 211.533 251.063 C 211.43 251.158 211.314 251.228 211.186 251.271 C 211.058 251.313 210.942 251.3 210.839 251.232 C 210.651 251.11 210.501 251.042 210.39 251.025 C 210.279 251.006 210.184 251.012 210.108 251.037 C 210.03 251.063 209.961 251.093 209.901 251.128 C 209.842 251.163 209.769 251.163 209.684 251.128 C 209.392 250.972 209.075 250.791 208.733 250.583 C 208.39 250.375 208.168 250.151 208.065 249.909 C 207.996 249.805 207.932 249.632 207.873 249.391 C 207.813 249.148 207.761 248.863 207.718 248.535 C 207.676 248.207 207.637 247.853 207.603 247.472 C 207.569 247.091 207.543 246.72 207.526 246.356 C 206.961 247.429 206.357 248.318 205.715 249.027 C 205.073 249.736 204.431 250.303 203.788 250.727 C 203.146 251.15 202.513 251.448 201.889 251.621 C 201.263 251.793 200.694 251.88 200.18 251.88 C 199.649 251.88 199.183 251.81 198.78 251.672 C 198.378 251.533 198.066 251.37 197.843 251.18 C 197.004 250.333 196.409 249.646 196.058 249.118 C 195.707 248.591 195.548 248.164 195.582 247.835 C 195.668 246.729 195.933 245.708 196.379 244.774 C 196.824 243.842 197.38 242.981 198.049 242.195 C 198.716 241.409 199.465 240.7 200.295 240.069 C 201.126 239.438 201.974 238.876 202.838 238.384 C 203.703 237.891 204.555 237.476 205.394 237.139 C 206.233 236.802 206.995 236.529 207.68 236.321 C 207.645 235.389 207.607 234.572 207.564 233.872 C 207.521 233.172 207.457 232.657 207.371 232.329 C 207.115 231.257 206.721 230.458 206.19 229.93 C 205.659 229.403 205.017 229.139 204.264 229.139 C 203.784 229.139 203.301 229.321 202.813 229.683 C 202.325 230.047 201.884 230.54 201.49 231.161 C 201.096 231.783 200.775 232.501 200.527 233.314 C 200.279 234.127 200.146 234.982 200.128 235.88 C 200.128 236.106 200.137 236.322 200.155 236.529 C 200.172 236.737 200.197 236.953 200.232 237.177 C 200.248 237.299 200.21 237.385 200.116 237.437 C 200.022 237.488 199.906 237.528 199.769 237.553 C 199.632 237.579 199.487 237.601 199.332 237.619 C 199.179 237.636 199.05 237.662 198.947 237.696 C 198.861 237.731 198.793 237.753 198.742 237.761 C 198.69 237.77 198.639 237.761 198.588 237.736 C 198.537 237.71 198.472 237.662 198.395 237.592 C 198.318 237.524 198.211 237.437 198.074 237.333 C 197.937 237.229 197.796 237.143 197.65 237.073 C 197.504 237.005 197.376 236.944 197.265 236.893 C 197.153 236.841 197.059 236.793 196.982 236.749 C 196.906 236.707 196.867 236.65 196.867 236.581 C 196.867 235.51 197.103 234.403 197.573 233.262 C 198.044 232.122 198.678 231.08 199.474 230.137 C 200.27 229.196 201.195 228.423 202.248 227.817 C 203.301 227.212 204.418 226.909 205.6 226.909 C 206.558 226.909 207.388 227.057 208.09 227.35 C 208.793 227.644 209.392 228.025 209.889 228.491 C 210.385 228.958 210.792 229.477 211.109 230.047 C 211.426 230.617 211.674 231.192 211.854 231.771 C 212.034 232.351 212.162 232.895 212.239 233.405 C 212.316 233.916 212.363 234.335 212.381 234.663 Z M 207.731 239.278 C 207.218 239.468 206.652 239.719 206.036 240.029 C 205.42 240.341 204.795 240.709 204.162 241.132 C 203.528 241.555 202.894 242.044 202.261 242.598 C 201.627 243.15 201.036 243.764 200.489 244.437 C 199.838 245.216 199.367 245.907 199.075 246.513 C 198.785 247.118 198.605 247.631 198.536 248.054 C 198.468 248.479 198.485 248.812 198.588 249.054 C 198.69 249.295 198.81 249.443 198.947 249.495 C 199.478 249.702 200.03 249.723 200.604 249.559 C 201.178 249.395 201.751 249.101 202.325 248.677 C 202.898 248.254 203.455 247.745 203.995 247.148 C 204.533 246.551 205.043 245.937 205.522 245.306 C 206.002 244.675 206.43 244.054 206.807 243.44 C 207.183 242.826 207.491 242.294 207.731 241.845 L 207.731 239.278 Z M 223.682 219.364 C 223.682 219.468 223.665 219.739 223.63 220.18 C 223.596 220.622 223.549 221.205 223.489 221.93 C 223.429 222.657 223.357 223.5 223.271 224.459 C 223.185 225.418 223.1 226.451 223.014 227.557 C 224.092 227.419 225.115 227.311 226.083 227.234 C 227.05 227.156 227.868 227.116 228.536 227.116 C 228.759 227.116 228.956 227.16 229.127 227.246 C 229.298 227.332 229.44 227.432 229.551 227.544 C 229.662 227.656 229.752 227.777 229.82 227.908 C 229.889 228.037 229.932 228.145 229.948 228.232 C 229.948 228.319 229.957 228.4 229.975 228.478 C 229.992 228.556 230 228.639 230 228.724 C 230 229.07 229.85 229.416 229.551 229.761 C 229.251 230.108 228.801 230.324 228.202 230.41 L 222.731 231.006 C 222.645 232.251 222.568 233.53 222.5 234.844 C 222.431 236.158 222.367 237.467 222.307 238.773 C 222.248 240.077 222.201 241.361 222.166 242.623 C 222.132 243.885 222.115 245.078 222.115 246.201 C 222.115 246.927 222.132 247.514 222.166 247.964 C 222.201 248.414 222.218 248.708 222.218 248.846 C 222.218 249.14 222.162 249.43 222.051 249.714 C 221.94 250 221.811 250.259 221.666 250.493 C 221.52 250.726 221.366 250.917 221.203 251.063 C 221.04 251.209 220.907 251.283 220.805 251.283 C 220.188 251.283 219.701 251.088 219.341 250.7 C 218.982 250.311 218.712 249.788 218.532 249.132 C 218.352 248.474 218.236 247.722 218.185 246.875 C 218.134 246.028 218.108 245.147 218.108 244.23 C 218.108 242.07 218.168 239.904 218.288 237.736 C 218.408 235.565 218.579 233.478 218.802 231.473 L 215.591 231.862 C 215.54 231.862 215.488 231.87 215.436 231.887 C 215.385 231.906 215.326 231.915 215.257 231.915 C 214.932 231.915 214.67 231.836 214.473 231.68 C 214.277 231.525 214.127 231.343 214.024 231.136 C 213.922 230.928 213.858 230.716 213.832 230.501 C 213.806 230.285 213.793 230.117 213.793 229.995 C 213.793 229.753 213.827 229.528 213.896 229.321 C 213.965 229.114 214.093 228.984 214.281 228.932 C 214.641 228.794 215.27 228.643 216.169 228.478 C 217.068 228.314 218.082 228.145 219.213 227.972 C 219.401 226.572 219.593 225.289 219.79 224.122 C 219.987 222.955 220.18 221.944 220.368 221.088 C 220.557 220.232 220.732 219.567 220.895 219.091 C 221.057 218.617 221.199 218.378 221.319 218.378 C 221.353 218.378 221.396 218.387 221.447 218.405 C 221.498 218.422 221.541 218.431 221.576 218.431 C 221.678 218.431 221.759 218.374 221.819 218.262 C 221.879 218.149 221.995 218.093 222.166 218.093 C 222.32 218.093 222.487 218.14 222.667 218.236 C 222.847 218.331 223.01 218.448 223.155 218.586 C 223.3 218.725 223.425 218.867 223.528 219.013 C 223.631 219.161 223.682 219.278 223.682 219.364 Z" fill="var(--brand)">
    <title>Text</title>
  </path>
</svg>