<?xml version="1.0" encoding="UTF-8" standalone="no"?>
<svg  version="1.1" xmlns="http://www.w3.org/2000/svg" width="251.359px" height="200.301px">
<path d="M131.802 94.5749 C133.246 128.949, 131.513 128.371, 131.08 133.426 C129.924 137.903, 126.334 145.428, 117.937 146.569 C119.436 146.552, 122.559 142.308, 124.292 136.82 C115.739 146.918, 106.816 150.324, 96.5616 154.368 C112.737 148.014, 132.524 120.052, 131.802 94.5749 Z " stroke="black" stroke-width="1" fill="none" />

<path d="M142.056 64.4618 C142.166 64.3549, 152.166 69.3001, 152.166 69.3001 C133.882 16.7326, 66.8503 27.9103, 57.6397 31.9652 C70.2754 29.6549, 125.005 24.7162, 142.056 64.4618 Z " stroke="black" stroke-width="1" fill="none" />

<path d="M128.732 145.358 C102.425 159.86, 87.3071 159.86, 61.2965 161.443 C61.2965 161.443, 80.9634 193.797, 80.9634 193.797 C80.9634 193.797, 168.99 197.917, 168.99 197.917 C180.4 181.598, 174.909 164.276, 170.865 155.609 C170.865 155.754, 181.377 167.167, 179.788 180.165 C199.864 140.159, 159.874 125.466, 167.832 98.9106 C176.126 112.994, 187.121 101.776, 202.716 118.117 C204.672 120.708, 212.829 112.423, 210.804 109.74 C209.695 110.953, 203.071 105.427, 204.016 104.396 C204.016 104.396, 211.67 107.429, 211.67 107.429 C215.004 101.305, 203.654 96.7414, 192.462 87.498 C180.618 77.3158, 184.157 76.5937, 172.097 70.1667 C159.679 -14.3345, 59.3008 19.3295, 45.8684 28.4269 C47.1687 27.2713, 89.6579 11.8105, 125.28 29.0131 C128.986 29.0771, 137.507 28.9324, 145.306 33.4825 C139.24 32.2545, 132.452 33.0141, 132.446 33.0401 C134.832 34.5908, 137.149 36.3215, 139.373 38.2478 C140.829 38.0317, 149.278 39.6204, 153.972 43.3753 C149.928 42.2199, 143.717 42.4712, 143.732 42.4221 C145.667 44.4614, 147.51 46.6827, 149.249 49.0946 C152.704 49.5712, 157.764 51.03, 161.482 53.9185 C159.422 52.9451, 151.912 52.9075, 151.987 52.9451 C152.917 54.4413, 153.625 55.9694, 154.477 57.6015 C156.066 60.9233, 160.399 75.626, 160.11 75.5104 C160.234 75.4816, 150.976 71.842, 145.811 70.5999 C135.413 59.9122, 118.564 61.3133, 119.526 61.7899 C124.003 78.1102, 137.379 78.6541, 137.379 78.6541 C132.283 108.458, 142.886 131.06, 128.732 145.358 Z " stroke="black" stroke-width="1" fill="none" />

<path d="M169.556 104.374 C175.538 119.19, 190.067 108.041, 194.484 121.15 C194.917 132.704, 198.383 139.131, 206.038 140.286 C201.344 136.965, 200.911 126.638, 202.355 120.572 C186.468 105.407, 178.323 115.911, 169.556 104.374 Z " stroke="black" stroke-width="1" fill="none" />

<path d="M179.246 85.7648 C179.246 85.7648, 183.074 90.9642, 183.074 90.9642 C173.541 92.4085, 167.837 83.1651, 167.692 78.9767 C169.223 82.2061, 176.213 86.2704, 179.246 85.7648 Z " stroke="black" stroke-width="1" fill="none" />

<path d="M127.108 66.9892 C135.34 68.1446, 142.573 71.946, 143.934 76.7381 C139.745 77.0269, 133.951 75.7416, 133.463 75.1494 C129.997 73.7773, 126.741 68.8784, 127.108 66.9892 Z " stroke="black" stroke-width="1" fill="none" />

<path d="M69.6976 14.2739 C69.6976 14.2739, 77.4219 0.322099, 78.2539 0.00212572 C78.664 -0.154617, 190.01 8.41048, 189.209 7.92449 C188.718 7.6277, 83.3753 7.56649, 82.8091 7.92449 C81.8703 8.5227, 80.9864 11.1836, 79.7704 11.8736 C79.2678 12.1593, 69.6976 14.2739, 69.6976 14.2739 Z " stroke="black" stroke-width="1" fill="none" />

<path d="M251.359 100.052 C251.365 101.386, 194.567 199.542, 193.81 200.001 C193.221 200.359, 77.7859 200.296, 77.7859 200.296 C77.7859 200.296, 20.5014 100.063, 20.5014 100.063 C20.5014 100.063, 57.4579 35.6453, 57.4579 35.6453 C57.4579 35.6453, 66.8095 34.9266, 66.8095 34.9266 C66.3699 36.723, 29.277 99.3295, 29.2594 100.063 C29.2307 100.947, 81.8415 192.457, 82.6965 192.931 C83.3319 193.283, 188.594 193.141, 189.14 192.786 C190.049 192.193, 251.351 98.4485, 251.359 100.052 Z " stroke="black" stroke-width="1" fill="none" />

</svg>
