<?xml version="1.0" encoding="UTF-8" standalone="no"?>
<svg  version="1.1" xmlns="http://www.w3.org/2000/svg" width="1005.35px" height="867.401px">
<path d="M741.61 517.852 C741.563 518.363, 741.515 518.875, 741.467 519.386 C741.467 567.409, 741.467 582.614, 741.467 597.819 C741.515 598.331, 741.563 598.842, 741.61 599.354 C741.753 599.852, 741.895 600.351, 742.038 600.85 C742.271 601.324, 742.504 601.798, 742.737 602.271 C743.056 602.709, 743.374 603.146, 743.693 603.583 C744.089 603.972, 744.484 604.361, 744.88 604.751 C745.342 605.085, 745.804 605.418, 746.267 605.752 C746.787 606.019, 747.307 606.286, 747.828 606.554 C748.391 606.75, 748.954 606.947, 749.517 607.143 C750.109 607.263, 750.702 607.383, 751.294 607.502 C751.901 607.543, 752.508 607.583, 753.115 607.623 C754.72 607.623, 756.325 607.623, 757.93 607.623 C766.179 607.623, 782.677 607.623, 782.677 607.623 C782.677 607.623, 693.83 761.507, 693.83 761.507 C693.83 761.507, 315.302 761.507, 315.302 761.507 C315.302 761.507, 126.039 433.701, 126.039 433.701 C126.039 433.701, 315.302 105.895, 315.302 105.895 C315.302 105.895, 693.83 105.895, 693.83 105.895 C693.83 105.895, 883.093 433.701, 883.093 433.701 C883.093 433.701, 839.282 509.582, 839.282 509.582 C839.282 509.582, 778.572 509.582, 757.93 509.582 C756.325 509.582, 754.72 509.582, 753.115 509.582 C752.508 509.623, 751.901 509.663, 751.294 509.703 C750.702 509.823, 750.109 509.943, 749.517 510.062 C748.954 510.259, 748.391 510.455, 747.828 510.652 C747.307 510.919, 746.787 511.186, 746.267 511.453 C745.804 511.787, 745.342 512.121, 744.88 512.455 C744.484 512.844, 744.089 513.233, 743.693 513.623 C743.374 514.06, 743.056 514.497, 742.737 514.934 C742.504 515.408, 742.271 515.881, 742.038 516.355 C741.895 516.854, 741.753 517.353, 741.61 517.852 Z " stroke="black" stroke-width="1" fill="none" />

<path d="M1005.35 433.701 C1005.35 433.701, 754.964 4.54747e-13, 754.964 4.54747e-13 C754.964 4.54747e-13, 745.966 4.54747e-13, 741.467 0 C315.276 4.54747e-13, 254.176 4.54747e-13, 254.176 4.54747e-13 C254.176 4.54747e-13, 3.77866 433.701, 3.77866 433.701 C3.77866 433.701, 254.172 867.401, 254.172 867.401 C254.172 867.401, 754.96 867.401, 754.96 867.401 C754.96 867.401, 1005.35 433.701, 1005.35 433.701 Z " stroke="black" stroke-width="1" fill="none" />

<path d="M12.4716 433.699 C94.4871 575.755, 176.503 717.81, 258.518 859.866 C422.549 859.867, 586.581 859.867, 750.612 859.868 C832.628 717.813, 914.645 575.757, 996.661 433.702 C914.645 291.646, 832.63 149.591, 750.614 7.53503 C586.583 7.53459, 422.551 7.53416, 258.52 7.53372 C176.504 149.589, 94.4877 291.644, 12.4716 433.699 Z " stroke="black" stroke-width="1" fill="none" />

</svg>
