<?xml version="1.0" encoding="UTF-8" standalone="no"?>
<!-- Created with Inkscape (http://www.inkscape.org/) -->

<svg
   width="210mm"
   height="297mm"
   viewBox="0 0 210 297"
   version="1.1"
   id="svg1"
   xml:space="preserve"
   sodipodi:docname="Logo Horizontal.svg"
   inkscape:version="1.4.2 (f4327f4, 2025-05-13)"
   xmlns:inkscape="http://www.inkscape.org/namespaces/inkscape"
   xmlns:sodipodi="http://sodipodi.sourceforge.net/DTD/sodipodi-0.dtd"
   xmlns="http://www.w3.org/2000/svg"
   xmlns:svg="http://www.w3.org/2000/svg"><sodipodi:namedview
     id="namedview1"
     pagecolor="#ffffff"
     bordercolor="#000000"
     borderopacity="0.25"
     inkscape:showpageshadow="2"
     inkscape:pageopacity="0.0"
     inkscape:pagecheckerboard="0"
     inkscape:deskcolor="#d1d1d1"
     inkscape:document-units="mm"
     inkscape:zoom="2.0034492"
     inkscape:cx="355.63667"
     inkscape:cy="339.16508"
     inkscape:window-width="3440"
     inkscape:window-height="1369"
     inkscape:window-x="-8"
     inkscape:window-y="-8"
     inkscape:window-maximized="1"
     inkscape:current-layer="g2" /><defs
     id="defs1"><linearGradient
       id="swatch2"
       inkscape:swatch="solid"><stop
         style="stop-color:#3f574b;stop-opacity:1;"
         offset="0"
         id="stop2" /></linearGradient><style
       id="style1">
      :root {--brand: #4C8044;}
    </style></defs><g
     inkscape:label="Layer 1"
     inkscape:groupmode="layer"
     id="layer1"><g
       id="g2"><path
         style="fill:#122223;fill-opacity:1;stroke:#000000;stroke-width:0"
         d="M 5.4498854,197.96642 V 173.5 H 95.844909 186.23993 v 24.46642 24.46642 H 95.844909 5.4498854 Z"
         id="path20" /><rect
         style="fill:#3b6255;fill-opacity:1;stroke:#000000;stroke-width:0.237837"
         id="rect58"
         width="181.12871"
         height="49.303932"
         x="4.0040011"
         y="52.095329" /><path
         d="m 63.934288,70.679803 c 0,0.213433 -0.004,0.487695 -0.01364,0.821756 -0.0098,0.334567 -0.01968,0.715545 -0.03292,1.142916 -0.01364,0.427878 -0.02825,0.889288 -0.04638,1.383667 -0.01753,0.494397 -0.03097,1.008883 -0.03975,1.544003 0.25622,-0.151588 0.562963,-0.300547 0.92021,-0.448004 0.357793,-0.146913 0.732575,-0.305185 1.125401,-0.474271 0.392825,-0.16971 0.78565,-0.352103 1.178496,-0.547999 0.392825,-0.195915 0.752661,-0.414491 1.079494,-0.655242 0.803206,-0.614498 1.405333,-1.173857 1.806926,-1.67751 0.4021,-0.503672 0.602653,-0.968687 0.602653,-1.396565 0,-0.178867 -0.02825,-0.32993 -0.08611,-0.454689 -0.05729,-0.1247 -0.125869,-0.236111 -0.205191,-0.334059 -0.203104,-0.115935 -0.505211,-0.214467 -0.906805,-0.294372 -0.402097,-0.08046 -0.893924,-0.120225 -1.476451,-0.120225 -0.547491,0 -1.097049,0.04227 -1.648652,0.126843 -0.551624,0.08515 -1.083646,0.191339 -1.59556,0.320655 -0.511913,0.129378 -0.990841,0.270133 -1.436762,0.421702 -0.445413,0.151005 -0.840304,0.293846 -1.184672,0.427371 -0.344387,0.134053 -0.622761,0.25209 -0.834633,0.354675 -0.211368,0.1021 -0.339224,0.161916 -0.383552,0.179841 -0.04442,0.01753 -0.09489,0.04696 -0.152563,0.0871 -0.05729,0.04013 -0.112424,0.06021 -0.165422,0.06021 -0.114958,0 -0.194454,-0.04482 -0.238178,-0.133468 -0.04442,-0.08923 -0.05768,-0.18296 -0.03974,-0.281492 -0.07053,-0.02631 -0.128402,-0.07794 -0.172241,-0.153537 -0.04442,-0.0758 -0.0795,-0.157825 -0.106192,-0.246946 -0.0263,-0.08923 -0.04384,-0.17575 -0.053,-0.260857 -0.0098,-0.08457 -0.01364,-0.149445 -0.01364,-0.193869 0,-0.178283 0.07735,-0.336633 0.231475,-0.47429 0.154706,-0.138145 0.355707,-0.260858 0.60316,-0.368081 0.06137,-0.0263 0.195896,-0.08865 0.403132,-0.18705 0.207763,-0.09801 0.47275,-0.211368 0.794438,-0.340763 0.322194,-0.128793 0.68667,-0.264462 1.092394,-0.407264 0.406231,-0.143405 0.838764,-0.274263 1.297565,-0.394889 0.459345,-0.119632 0.931568,-0.220136 1.417179,-0.300568 0.48563,-0.07988 0.966622,-0.120027 1.443484,-0.120027 0.343841,0.0078 0.710382,0.02883 1.09857,0.05982 0.388207,0.03137 0.772263,0.09587 1.151684,0.194454 0.379948,0.09741 0.735147,0.235586 1.066111,0.413967 0.330961,0.178281 0.61142,0.419109 0.840829,0.722247 0.246926,0.195897 0.465521,0.460866 0.655221,0.794925 0.189779,0.334061 0.285098,0.73772 0.285098,1.209944 0,0.329423 -0.02883,0.625859 -0.08611,0.888761 -0.05768,0.262924 -0.108331,0.448007 -0.152564,0.554723 -0.229409,0.579448 -0.522747,1.078462 -0.880012,1.497084 -0.357774,0.419111 -0.741832,0.777916 -1.152193,1.076417 -0.410361,0.298483 -0.823294,0.550064 -1.237766,0.75473 -0.414999,0.205168 -0.790308,0.374782 -1.125908,0.508289 0.370653,0 0.752664,0.01753 1.145488,0.05358 0.392827,0.03566 0.781541,0.09995 1.165092,0.19387 0.384056,0.09391 0.752664,0.229409 1.105798,0.407282 0.353136,0.178868 0.67946,0.405705 0.979501,0.682033 0.194455,0.213939 0.371179,0.44592 0.529957,0.695439 0.132495,0.213938 0.253628,0.465014 0.363958,0.755254 0.110284,0.289206 0.165421,0.603665 0.165421,0.942362 0.053,0.21396 0.07988,0.458821 0.07988,0.735147 0,0.311888 -0.02689,0.659355 -0.07988,1.042904 -0.04442,0.338192 -0.154706,0.734621 -0.330969,1.189329 -0.176335,0.454689 -0.450052,0.922275 -0.82123,1.403774 -0.370651,0.480973 -0.85371,0.951132 -1.449659,1.410477 -0.595951,0.458819 -1.339321,0.857314 -2.230674,1.196011 -0.556241,0.222708 -1.064042,0.383044 -1.522862,0.480994 -0.458819,0.0984 -0.873818,0.147497 -1.244995,0.147497 -0.176335,0 -0.368588,-0.01753 -0.575843,-0.05358 -0.207236,-0.03566 -0.401593,-0.0871 -0.582018,-0.153535 -0.181401,-0.06702 -0.33149,-0.149447 -0.450578,-0.247453 -0.119632,-0.09741 -0.178868,-0.21394 -0.178868,-0.347446 0,-0.07112 -0.02222,-0.122166 -0.06606,-0.153732 -0.04442,-0.03097 -0.09274,-0.06898 -0.145938,-0.113993 -0.04442,0.152174 -0.09489,0.272198 -0.15198,0.361378 -0.05768,0.08865 -0.117109,0.160356 -0.178865,0.213938 -0.07053,0.06235 -0.141263,0.106774 -0.211874,0.133469 -0.03508,0 -0.06606,-0.0098 -0.09275,-0.02689 -0.05319,-0.0098 -0.09274,-0.04442 -0.119051,-0.106773 -0.03566,0.07112 -0.08203,0.144379 -0.139118,0.220641 -0.05729,0.07521 -0.112423,0.1134 -0.165423,0.1134 -0.02631,0 -0.06391,-0.0019 -0.112423,-0.0058 -0.04852,-0.004 -0.09683,-0.06487 -0.145354,-0.18101 -0.04891,-0.115935 -0.09741,-0.314459 -0.145939,-0.594917 -0.04851,-0.280439 -0.09275,-0.703678 -0.132493,-1.269721 -0.03975,-0.565535 -0.07267,-1.298617 -0.09956,-2.198212 -0.0263,-0.90061 -0.03975,-2.023944 -0.03975,-3.368953 0,-0.543887 0,-1.116633 0,-1.718253 0,-0.601093 0.004,-1.193947 0.01364,-1.778031 0.0098,-0.583578 0.02416,-1.144982 0.04638,-1.683706 0.0222,-0.539251 0.05319,-1.029517 0.09275,-1.470275 0.03975,-0.441809 0.09022,-0.811448 0.151977,-1.10993 0.06197,-0.298501 0.141262,-0.501099 0.238178,-0.607816 0.07053,-0.08925 0.196404,-0.173802 0.37788,-0.254662 0.18101,-0.07949 0.359312,-0.153537 0.536134,-0.220641 0.176334,-0.06644 0.330962,-0.119631 0.463456,-0.159771 0.132494,-0.04013 0.189778,-0.06956 0.172243,-0.0871 0.04384,0.01753 0.08144,0.04696 0.112423,0.0871 0.03097,0.04013 0.04598,0.09587 0.04598,0.166981 z m 0.463981,6.89721 c -0.06197,0 -0.152563,-0.03546 -0.271165,-0.106773 -0.119631,-0.07112 -0.249516,-0.156264 -0.390779,-0.254154 -0.02689,0.74906 -0.05358,1.497611 -0.07988,2.24667 -0.0263,0.747501 -0.05261,1.458934 -0.07949,2.131185 -0.0263,0.672758 -0.04598,1.294993 -0.05922,1.86464 -0.01364,0.570697 -0.01948,1.047034 -0.01948,1.430584 0.105598,-0.169124 0.220135,-0.331994 0.343861,-0.488202 0.123727,-0.155094 0.244879,-0.293844 0.363968,-0.413965 0.119631,-0.120027 0.229916,-0.216004 0.33147,-0.287143 0.101519,-0.0717 0.178282,-0.107169 0.231474,-0.107169 0.01753,0 0.03566,0.004 0.0532,0.01364 0.01753,0.0078 0.05729,0.04442 0.119051,0.106773 0.01753,0 0.03508,-0.004 0.053,-0.01364 0.01753,-0.0098 0.03508,-0.01364 0.05261,-0.01364 0.07053,0 0.123726,0.03137 0.159382,0.09392 0.03508,0.06235 0.053,0.182568 0.053,0.360871 0,0.09801 -0.02689,0.182958 -0.07988,0.254154 -0.053,0.0717 -0.112423,0.136196 -0.178867,0.193871 -0.06606,0.05768 -0.13191,0.1134 -0.197962,0.16698 -0.06644,0.05358 -0.112819,0.107169 -0.139702,0.160358 0.07053,0.01753 0.141261,0.03137 0.211873,0.04013 0.07054,0.0098 0.18101,0.01364 0.331488,0.01364 0.07892,-0.0078 0.240243,-0.02474 0.483058,-0.04638 0.242796,-0.0226 0.554175,-0.08962 0.933614,-0.20104 0.379421,-0.111459 0.818638,-0.287668 1.317166,-0.527385 0.499017,-0.241274 1.043938,-0.584084 1.635249,-1.029497 0.503146,-0.383552 0.909377,-0.775364 1.218186,-1.176957 0.308789,-0.40056 0.544901,-0.776902 0.708316,-1.129512 0.163476,-0.351597 0.271691,-0.661418 0.32428,-0.928977 0.05358,-0.26756 0.07988,-0.458818 0.07988,-0.57481 -0.03566,-0.329422 -0.17419,-0.630496 -0.417065,-0.902167 -0.242814,-0.271691 -0.565008,-0.505738 -0.967127,-0.701634 -0.401086,-0.195897 -0.871246,-0.347465 -1.409971,-0.454688 -0.538198,-0.106774 -1.116612,-0.160357 -1.734211,-0.160357 -0.414996,0 -0.781032,0.02221 -1.099115,0.06702 -0.317556,0.04424 -0.597996,0.09528 -0.84081,0.153539 -0.242816,0.05826 -0.447986,0.109308 -0.615533,0.15412 -0.167955,0.04442 -0.309315,0.06606 -0.423766,0.06606 z m 13.332007,-8.621112 c 0,0.12431 -0.0095,0.369113 -0.0257,0.73462 -0.01753,0.365508 -0.03981,0.80422 -0.06646,1.31664 -0.02689,0.51244 -0.05508,1.073845 -0.08611,1.684233 -0.03103,0.610896 -0.06397,1.221263 -0.09962,1.831652 -0.03506,0.610389 -0.0661,1.200669 -0.09275,1.771348 -0.0263,0.570172 -0.04383,1.069188 -0.05259,1.497086 -0.01753,0.258284 -0.0288,0.54336 -0.03353,0.855774 -0.0036,0.310854 -0.0059,0.645946 -0.0059,1.00218 0,0.472224 0.0023,0.965064 0.0059,1.476977 0.0036,0.512947 0.01187,1.018684 0.02061,1.517193 0.0083,0.499015 0.01955,0.977943 0.03258,1.437288 0.01362,0.458799 0.02416,0.871227 0.03292,1.236227 0.0095,0.365508 0.01564,0.671199 0.02061,0.915573 0.0036,0.245387 0.0059,0.398496 0.0059,0.461391 0,0.124701 -0.02002,0.220642 -0.05982,0.287667 -0.0392,0.06644 -0.08814,0.111249 -0.145357,0.133469 -0.05733,0.02222 -0.117146,0.02689 -0.178868,0.01364 -0.06195,-0.01364 -0.114897,-0.03351 -0.158792,-0.0604 -0.05319,-0.02689 -0.09488,-0.05826 -0.12587,-0.09333 -0.03103,-0.03566 -0.05508,-0.06235 -0.07333,-0.08046 -0.01753,-0.01753 -0.03258,-0.02222 -0.04632,-0.01364 -0.01362,0.0098 -0.02417,0.04482 -0.03258,0.106774 -0.02689,0.231982 -0.07735,0.405723 -0.152571,0.521715 -0.07522,0.115935 -0.154704,0.193869 -0.238168,0.234047 -0.08399,0.03975 -0.160757,0.05106 -0.231475,0.0335 -0.07049,-0.01753 -0.114896,-0.04891 -0.132494,-0.09391 -0.01753,-0.04442 -0.04631,-0.0717 -0.08611,-0.08086 -0.04016,-0.0078 -0.08197,-0.01559 -0.125872,-0.01968 -0.04417,-0.004 -0.08611,-0.01753 -0.126262,-0.04013 -0.0398,-0.02164 -0.06338,-0.06858 -0.07214,-0.139703 -0.07072,-0.303645 -0.114896,-0.688735 -0.132494,-1.156829 -0.01753,-0.467587 -0.02689,-0.996005 -0.02689,-1.584221 0,-0.507782 0.0036,-1.055801 0.01362,-1.644016 0.0095,-0.588195 0.01363,-1.18931 0.01363,-1.804335 0,-0.35674 0,-0.710908 0,-1.063011 0,-0.352103 -0.0095,-0.710907 -0.02689,-1.07589 v -0.841863 c 0,-0.722249 0.01753,-1.446036 0.05294,-2.172415 0.03506,-0.72638 0.07949,-1.423881 0.131914,-2.092003 0.05295,-0.668121 0.110878,-1.296552 0.172625,-1.885273 0.06136,-0.588215 0.114315,-1.109423 0.158803,-1.564112 0.04383,-0.454181 0.07949,-0.824326 0.10555,-1.108897 0.0263,-0.285602 0.03506,-0.463455 0.02689,-0.535099 -0.0095,-0.06235 -0.0023,-0.107169 0.01955,-0.133468 0.02216,-0.02689 0.05319,-0.04227 0.09275,-0.04696 0.0398,-0.004 0.0815,-0.0098 0.125871,-0.01364 0.04383,-0.004 0.08399,-0.01559 0.119051,-0.03351 0.06172,-0.03605 0.112411,-0.04696 0.152559,-0.03411 0.0398,0.01364 0.07274,0.03351 0.09903,0.06079 0.0263,0.0263 0.05046,0.05514 0.07321,0.08611 0.02167,0.03137 0.05473,0.04696 0.09903,0.04696 0.0526,-0.0078 0.09488,-0.02378 0.125873,-0.04696 0.03103,-0.02164 0.05733,-0.04424 0.07949,-0.06644 0.02227,-0.02222 0.04442,-0.04227 0.06646,-0.05982 0.02167,-0.01949 0.05046,-0.0226 0.08611,-0.01364 0.07049,0.01753 0.138724,0.02883 0.204668,0.03293 0.06645,0.004 0.09997,-0.0058 0.09997,-0.03293 0.01753,-0.0717 0.04383,-0.104634 0.07889,-0.100529 0.03566,0.004 0.07983,0.02883 0.132494,0.07365 0.05319,0.04442 0.09678,0.09119 0.132493,0.140677 0.03506,0.04891 0.0526,0.122167 0.0526,0.220661 z m 9.90532,10.012007 c 0.0094,0.311382 -0.01757,0.692339 -0.07952,1.142917 -0.06177,0.449545 -0.132491,0.931043 -0.211376,1.443464 -0.07979,0.512441 -0.155105,1.035695 -0.22529,1.570814 -0.07046,0.534594 -0.106131,1.038266 -0.106131,1.510489 0,0.311889 0.02214,0.607799 0.06644,0.888764 0.04383,0.280439 0.11905,0.52378 0.225281,0.728951 0.06139,0.115539 0.0943,0.218068 0.09903,0.307249 0.0037,0.08923 -0.0028,0.166982 -0.02018,0.23354 -0.01757,0.06702 -0.03504,0.125285 -0.05316,0.173802 -0.01757,0.04949 -0.01757,0.09587 0,0.140677 0.01757,0.04442 0.01364,0.09587 -0.01364,0.153538 -0.02626,0.05768 -0.06606,0.111459 -0.119063,0.160355 -0.05316,0.04891 -0.112411,0.08515 -0.178869,0.107169 -0.06606,0.02164 -0.125857,0.01559 -0.178857,-0.02007 -0.09678,-0.06293 -0.173804,-0.09801 -0.231458,-0.106774 -0.05738,-0.0098 -0.105661,-0.0058 -0.145938,0.0058 -0.03981,0.01364 -0.07485,0.02883 -0.105661,0.04696 -0.03102,0.01753 -0.06858,0.01753 -0.112769,0 -0.149453,-0.08046 -0.31294,-0.173801 -0.489761,-0.280966 -0.176336,-0.107169 -0.29127,-0.222707 -0.343868,-0.347446 -0.03569,-0.05358 -0.06859,-0.142821 -0.09962,-0.267053 -0.03093,-0.125284 -0.05737,-0.272198 -0.07924,-0.441283 -0.02224,-0.169125 -0.04168,-0.351596 -0.0598,-0.547999 -0.01757,-0.196423 -0.03102,-0.387681 -0.03924,-0.575335 -0.291774,0.553162 -0.602638,1.011455 -0.93363,1.376963 -0.33146,0.365508 -0.662453,0.657814 -0.993417,0.87639 -0.330963,0.218069 -0.657807,0.371704 -0.980008,0.460884 -0.321692,0.08865 -0.615533,0.133468 -0.879999,0.133468 -0.27375,0 -0.5145,-0.03605 -0.721739,-0.107169 -0.20776,-0.0717 -0.36911,-0.155681 -0.483562,-0.253648 -0.43253,-0.436646 -0.73926,-0.790814 -0.920213,-1.063012 -0.181002,-0.271691 -0.262393,-0.491806 -0.244873,-0.661418 0.04442,-0.570171 0.181013,-1.096523 0.410355,-1.578023 0.229414,-0.480466 0.516552,-0.924341 0.860418,-1.329539 0.344363,-0.405197 0.731016,-0.770705 1.158891,-1.095998 0.428407,-0.325311 0.865044,-0.615026 1.310989,-0.868674 0.445421,-0.254154 0.884629,-0.468094 1.317176,-0.641815 0.432507,-0.173802 0.825368,-0.31448 1.178506,-0.421702 -0.01757,-0.480467 -0.03756,-0.901661 -0.05925,-1.262531 -0.02214,-0.360872 -0.05569,-0.626366 -0.0995,-0.795451 -0.132492,-0.552638 -0.335626,-0.964539 -0.609357,-1.236736 -0.273236,-0.271691 -0.604199,-0.407788 -0.99292,-0.407788 -0.246931,0 -0.496443,0.09372 -0.748028,0.280439 -0.251583,0.187634 -0.478926,0.441808 -0.681521,0.761957 -0.203105,0.320655 -0.368612,0.690801 -0.49645,1.109929 -0.128393,0.419111 -0.196921,0.859887 -0.205699,1.322837 0,0.116516 0.0036,0.22785 0.01363,0.334566 0.0095,0.107169 0.02214,0.218576 0.03969,0.334061 0.0095,0.06293 -0.01187,0.107169 -0.05982,0.134053 -0.04857,0.02631 -0.1078,0.04696 -0.178289,0.05982 -0.07049,0.01364 -0.145937,0.02474 -0.22528,0.03409 -0.07949,0.0078 -0.145357,0.02221 -0.198994,0.03975 -0.04383,0.01753 -0.07925,0.02943 -0.105661,0.03351 -0.0263,0.004 -0.05259,0 -0.07949,-0.01364 -0.0263,-0.01364 -0.05924,-0.03819 -0.0995,-0.07424 -0.0398,-0.03508 -0.09488,-0.07988 -0.165424,-0.133468 -0.07013,-0.05358 -0.143402,-0.09801 -0.218078,-0.134052 -0.07522,-0.03508 -0.141839,-0.06644 -0.198994,-0.09275 -0.05722,-0.02689 -0.105661,-0.05163 -0.145344,-0.07424 -0.0398,-0.02164 -0.05922,-0.05106 -0.05922,-0.08651 0,-0.552132 0.12119,-1.12281 0.363955,-1.711026 0.242302,-0.587707 0.569135,-1.124873 0.979501,-1.611028 0.410357,-0.485104 0.887225,-0.883599 1.43007,-1.196012 0.542844,-0.311888 1.118693,-0.468095 1.728051,-0.468095 0.493862,0 0.922278,0.07638 1.28419,0.227345 0.361884,0.151589 0.671198,0.347972 0.927418,0.588214 0.255706,0.24075 0.465521,0.508312 0.628943,0.802156 0.162889,0.293844 0.290765,0.590279 0.383553,0.888761 0.09279,0.299007 0.159385,0.579447 0.198481,0.84237 0.03981,0.263429 0.06401,0.479433 0.0726,0.648539 z m -2.396156,2.379144 c -0.265012,0.09801 -0.556282,0.227346 -0.873837,0.387157 -0.318078,0.160746 -0.640287,0.350563 -0.96713,0.568632 -0.326321,0.21807 -0.65266,0.470159 -0.979502,0.755763 -0.326836,0.284569 -0.631007,0.601093 -0.913513,0.948053 -0.335597,0.401594 -0.578421,0.757806 -0.728422,1.07022 -0.150036,0.311886 -0.242823,0.576349 -0.277875,0.794418 -0.03566,0.219103 -0.02689,0.390779 0.0263,0.515538 0.05295,0.124311 0.114896,0.200534 0.1851,0.227345 0.273739,0.106773 0.558307,0.117492 0.854222,0.03292 0.295904,-0.08457 0.591308,-0.236113 0.887214,-0.454689 0.295914,-0.218069 0.582559,-0.480466 0.860419,-0.788241 0.278366,-0.307777 0.540798,-0.6243 0.788254,-0.949592 0.246921,-0.325294 0.467568,-0.645442 0.661918,-0.961966 0.194455,-0.316544 0.353138,-0.590807 0.476875,-0.822262 z m 14.085699,-4.812435 c -0.02626,0.04482 -0.05046,0.08243 -0.07214,0.113993 -0.02214,0.03137 -0.05102,0.05983 -0.08615,0.08709 -0.03561,0.02631 -0.0798,0.05982 -0.132493,0.09957 -0.05316,0.04013 -0.119631,0.09645 -0.198995,0.168151 -0.150022,0.115539 -0.401588,0.336125 -0.754222,0.661418 -0.353109,0.325293 -0.764004,0.714512 -1.232096,1.169219 -0.467576,0.454689 -0.968148,0.951658 -1.502247,1.490889 -0.534071,0.538218 -1.057341,1.077976 -1.569256,1.617207 -0.511906,0.53923 -0.988772,1.054243 -1.42955,1.544003 -0.441786,0.490268 -0.80369,0.918146 -1.086194,1.283127 0.353138,-0.06235 0.761434,-0.1247 1.224882,-0.187049 0.463457,-0.06235 0.942368,-0.113401 1.436764,-0.153732 0.49388,-0.04013 0.986211,-0.07327 1.475952,-0.100542 0.489751,-0.02631 0.937744,-0.03974 1.343965,-0.03974 0.538726,0 0.953722,0.02689 1.245002,0.07988 0.150031,0.01753 0.280439,0.06898 0.390252,0.154121 0.110285,0.08397 0.203098,0.175751 0.278376,0.273737 0.07485,0.0984 0.131903,0.195896 0.171663,0.293864 0.04018,0.09801 0.06046,0.173801 0.06046,0.227343 0,0.08046 0.0037,0.155682 0.01364,0.226819 0.0094,0.0717 0.0056,0.138729 -0.0056,0.20106 -0.01364,0.06235 -0.04644,0.120213 -0.09903,0.173216 -0.05355,0.05417 -0.141855,0.0943 -0.264975,0.12119 -0.07073,0.01753 -0.152563,0.01753 -0.24538,0 -0.09242,-0.01753 -0.182568,-0.03605 -0.271171,-0.05358 -0.08802,-0.01949 -0.170092,-0.03137 -0.244875,-0.04013 -0.07522,-0.0078 -0.125867,0.004 -0.152573,0.04013 -0.09678,0.124701 -0.116565,0.231982 -0.05925,0.320655 0.05737,0.08923 0.147893,0.191338 0.271171,0.307777 0.06195,0.04442 0.0798,0.09547 0.05316,0.153536 -0.02626,0.05768 -0.08615,0.104635 -0.178867,0.140289 -0.09279,0.03566 -0.216011,0.05358 -0.370677,0.05358 -0.154124,0 -0.324245,-0.02689 -0.509308,-0.08046 -0.0799,-0.02689 -0.21447,-0.04949 -0.404187,-0.06702 -0.189781,-0.01753 -0.414996,-0.03293 -0.675327,-0.04638 -0.260359,-0.01364 -0.551629,-0.02474 -0.873828,-0.03409 -0.322191,-0.0098 -0.655238,-0.01364 -1.000116,-0.01364 -0.440768,0 -0.888761,0.0058 -1.343471,0.01968 -0.454691,0.01364 -0.880499,0.03411 -1.277985,0.06079 -0.396954,0.02631 -0.750082,0.06235 -1.058872,0.106773 -0.309314,0.04442 -0.538734,0.09801 -0.688756,0.160355 -0.176335,0.08925 -0.310855,0.127234 -0.404168,0.113994 -0.09242,-0.01364 -0.191332,-0.06956 -0.297445,-0.168152 -0.04439,-0.05261 -0.09082,-0.108714 -0.139118,-0.166591 -0.04859,-0.05768 -0.08363,-0.113982 -0.106131,-0.167565 -0.02167,-0.053 -0.02167,-0.104634 0,-0.15315 0.02261,-0.04891 0.07793,-0.08671 0.166001,-0.113981 0.07952,-0.01753 0.121189,-0.05106 0.125868,-0.09995 0.0037,-0.04891 -0.0084,-0.09995 -0.03354,-0.153537 -0.02626,-0.05358 -0.05737,-0.109308 -0.09242,-0.166981 -0.03569,-0.05768 -0.05316,-0.109308 -0.05316,-0.153539 0.0094,-0.08086 0.134641,-0.270132 0.377358,-0.568613 0.24281,-0.298481 0.565019,-0.668647 0.966616,-1.109403 0.401598,-0.440776 0.865054,-0.935175 1.390369,-1.483681 0.525315,-0.548019 1.072291,-1.111995 1.641935,-1.690934 0.569132,-0.579448 1.140869,-1.158894 1.714653,-1.737835 0.573774,-0.579447 1.11662,-1.118678 1.628544,-1.617712 -0.256219,-0.02631 -0.558842,-0.04638 -0.907336,-0.05982 -0.348503,-0.01364 -0.712443,-0.01968 -1.091885,-0.01968 -0.344869,0 -0.684608,0.004 -1.019702,0.01364 -0.335608,0.0098 -0.651108,0.01968 -0.947022,0.03351 -0.295399,0.01364 -0.55573,0.02883 -0.781029,0.04638 -0.224758,0.01753 -0.394888,0.03137 -0.509328,0.04073 -0.124306,0.01753 -0.212386,0.01949 -0.264985,0.0058 -0.05355,-0.01364 -0.08859,-0.03566 -0.10613,-0.06702 -0.01757,-0.03137 -0.02887,-0.06644 -0.03289,-0.106774 -0.0037,-0.04013 -0.0156,-0.07327 -0.03289,-0.09995 -0.02626,-0.02689 -0.0598,-0.05358 -0.0995,-0.08046 -0.03981,-0.02689 -0.0727,-0.05768 -0.09963,-0.09333 -0.02626,-0.03605 -0.04383,-0.07365 -0.05316,-0.113981 -0.0094,-0.04013 0.0037,-0.08243 0.03981,-0.126259 0.03569,-0.03605 0.04233,-0.06762 0.02065,-0.0943 -0.02261,-0.02689 -0.05102,-0.05106 -0.08615,-0.07365 -0.0357,-0.02222 -0.0711,-0.05046 -0.106737,-0.08651 -0.03504,-0.03566 -0.05261,-0.08046 -0.05261,-0.134051 0,-0.09741 0.0028,-0.191338 0.0056,-0.280459 0.0037,-0.08865 0.04168,-0.142237 0.112411,-0.160748 0.07046,-0.01753 0.110285,-0.06177 0.119051,-0.133078 0.0094,-0.07112 0.07522,-0.14282 0.198996,-0.21394 0.114426,-0.07112 0.291269,-0.128791 0.529444,-0.173799 0.238158,-0.04482 0.518616,-0.07832 0.840816,-0.09995 0.322208,-0.02318 0.677392,-0.03859 1.066104,-0.04696 0.388188,-0.0098 0.789777,-0.01364 1.204784,-0.01364 0.414483,0 0.831535,0.0019 1.251185,0.0058 0.419642,0.004 0.821229,0.01175 1.204783,0.02007 0.384059,0.0098 0.741832,0.01559 1.072796,0.02007 0.330983,0.004 0.615543,0.0078 0.85371,0.0078 0.07952,0 0.163478,0.03508 0.251585,0.106773 0.08859,0.07112 0.16814,0.156265 0.238689,0.253648 0.07046,0.0984 0.11905,0.20517 0.145341,0.320655 0.02626,0.115935 0.01757,0.218576 -0.02692,0.307756 z m 4.371651,-7.178156 c 0.009,0.177892 0.003,0.376322 -0.0197,0.594917 -0.0221,0.21805 -0.0576,0.429943 -0.10553,0.635115 -0.049,0.204158 -0.11502,0.387155 -0.199,0.548 -0.0836,0.160355 -0.18296,0.271689 -0.29747,0.33406 -0.29178,0.151588 -0.54749,0.227363 -0.76864,0.227363 -0.17634,0 -0.32839,-0.04287 -0.45676,-0.127429 -0.12781,-0.08457 -0.25365,-0.180424 -0.37736,-0.287648 -0.17634,-0.142236 -0.32426,-0.329423 -0.44336,-0.561424 -0.11905,-0.231454 -0.17886,-0.453656 -0.17886,-0.667595 0,-0.169514 0.0288,-0.376847 0.0862,-0.622233 0.0574,-0.24488 0.13034,-0.483059 0.21857,-0.715547 0.088,-0.231474 0.18295,-0.442842 0.28457,-0.634625 0.10152,-0.191338 0.20105,-0.322721 0.29797,-0.394365 0.15003,-0.124701 0.28921,-0.193286 0.41706,-0.20673 0.12783,-0.01364 0.23199,-0.0078 0.31139,0.02007 0.19386,0.04442 0.36601,0.09995 0.51603,0.166593 0.15062,0.06702 0.27632,0.169708 0.3779,0.307755 0.10151,0.138144 0.17827,0.318609 0.23144,0.541823 0.0526,0.222706 0.088,0.503165 0.10555,0.841864 z m -1.08571,5.975441 c 0.0444,0.04442 0.0774,0.191337 0.099,0.441304 0.0226,0.249497 0.0335,0.574808 0.0335,0.975369 0,0.267561 -0.004,0.557275 -0.0136,0.869161 -0.009,0.311906 -0.0196,0.632035 -0.0329,0.962491 -0.0136,0.329423 -0.0288,0.661418 -0.0464,0.995478 -0.0176,0.334587 -0.031,0.653175 -0.0398,0.955788 -0.0263,0.499542 -0.0417,0.960426 -0.0463,1.383668 -0.004,0.423766 -0.006,0.83103 -0.006,1.222821 0,0.517585 0.004,0.989303 0.0136,1.416674 0.009,0.428403 0.0136,0.785144 0.0136,1.07022 0,0.311906 -0.0119,0.550064 -0.0329,0.715039 -0.0221,0.165033 -0.0686,0.25622 -0.13911,0.274263 -0.0795,0.01753 -0.14535,0.05514 -0.199,0.112819 -0.0526,0.05768 -0.10116,0.113981 -0.14535,0.167565 -0.0438,0.05319 -0.0949,0.09995 -0.15217,0.140289 -0.0574,0.04013 -0.12588,0.05163 -0.20568,0.03351 -0.0438,-0.0098 -0.11905,-0.04891 -0.22478,-0.120608 -0.10555,-0.07112 -0.21858,-0.158214 -0.33766,-0.260858 -0.11905,-0.1021 -0.23147,-0.220641 -0.33768,-0.353641 -0.10566,-0.133468 -0.17633,-0.272198 -0.21137,-0.414999 -0.0176,-0.07072 -0.0336,-0.213431 -0.0464,-0.426846 -0.0136,-0.213956 -0.0248,-0.472749 -0.0335,-0.775869 -0.009,-0.302612 -0.0176,-0.638738 -0.0269,-1.008882 -0.009,-0.370145 -0.0156,-0.744422 -0.0196,-1.123336 -0.004,-0.378914 -0.006,-0.750599 -0.006,-1.1156 0,-0.365508 0,-0.695438 0,-0.989807 0,-0.454182 0.0156,-0.917639 0.0464,-1.389844 0.0305,-0.472224 0.0655,-0.913527 0.10566,-1.323362 0.0398,-0.409835 0.0795,-0.769167 0.11905,-1.07589 0.0398,-0.307776 0.068,-0.52378 0.0862,-0.648538 0.035,-0.213941 0.0727,-0.38098 0.11241,-0.501607 0.0397,-0.120225 0.084,-0.20673 0.1325,-0.260332 0.0486,-0.05358 0.0968,-0.0871 0.14536,-0.100542 0.049,-0.01364 0.0996,-0.02416 0.15256,-0.03351 0.10555,-0.01753 0.22736,-0.02164 0.36397,-0.01364 0.13659,0.0098 0.26703,0.02279 0.39076,0.04013 0.12372,0.01753 0.23147,0.04287 0.32478,0.07366 0.0924,0.03137 0.1475,0.06021 0.16503,0.0871 z M 113.018,86.22599 c 0,0.107168 -0.0376,0.225278 -0.11239,0.354674 -0.0752,0.128792 -0.18355,0.193285 -0.32478,0.193285 -0.0789,0 -0.14068,-0.02222 -0.1851,-0.06644 -0.0438,-0.04482 -0.0881,-0.06702 -0.13249,-0.06702 -0.0617,0 -0.12117,0.0222 -0.17887,0.06702 -0.0574,0.04442 -0.15218,0.06644 -0.28457,0.06644 -0.17693,0 -0.3289,-0.06449 -0.45677,-0.193285 -0.12782,-0.129376 -0.23197,-0.29437 -0.31138,-0.494904 -0.0794,-0.200532 -0.13873,-0.418603 -0.17828,-0.655242 -0.0402,-0.235585 -0.0598,-0.456227 -0.0598,-0.661417 0,-0.401067 0.0156,-0.857821 0.0464,-1.370261 0.031,-0.512421 0.066,-1.038266 0.10571,-1.577498 0.0402,-0.538724 0.0752,-1.075908 0.10608,-1.611029 0.031,-0.534068 0.046,-1.028466 0.046,-1.48368 0,-0.605732 -0.0392,-1.078483 -0.11869,-1.416653 -0.0799,-0.338192 -0.22117,-0.507804 -0.42427,-0.507804 -0.19388,0.02631 -0.39233,0.195916 -0.59544,0.507804 -0.20311,0.311886 -0.41035,0.710382 -0.62276,1.196538 -0.21136,0.48561 -0.41912,1.033629 -0.62173,1.643997 -0.2031,0.610389 -0.39952,1.234164 -0.58925,1.871868 -0.19016,0.636673 -0.36858,1.256335 -0.53612,1.857956 -0.16815,0.60162 -0.31808,1.13828 -0.45008,1.611029 -0.13249,0.471699 -0.24744,0.852677 -0.34488,1.142917 -0.0968,0.289207 -0.16288,0.434073 -0.19795,0.434073 -0.0711,0 -0.12431,-0.01559 -0.15939,-0.04638 -0.0357,-0.03137 -0.0686,-0.06487 -0.0995,-0.10053 -0.0305,-0.03566 -0.068,-0.06898 -0.11242,-0.100542 -0.0438,-0.03137 -0.11029,-0.04696 -0.19848,-0.04696 -0.0792,0 -0.1325,0.0098 -0.15939,0.02729 -0.0263,0.01753 -0.0574,0.03975 -0.0928,0.06644 -0.035,0.02689 -0.0789,0.04891 -0.1325,0.06702 -0.0526,0.01753 -0.14535,0.02689 -0.27786,0.02689 -0.15881,0 -0.3155,-0.04013 -0.46963,-0.120608 -0.15471,-0.07988 -0.23148,-0.204646 -0.23148,-0.374782 0,-0.106773 0.0176,-0.326832 0.0526,-0.661418 0.0357,-0.334061 0.0774,-0.743896 0.12587,-1.229525 0.0486,-0.485629 0.10152,-1.028991 0.15879,-1.630612 0.0574,-0.601601 0.11029,-1.223329 0.15939,-1.865165 0.0479,-0.641311 0.0903,-1.282619 0.12586,-1.924455 0.035,-0.642343 0.0526,-1.252733 0.0526,-1.831653 0,-0.285096 -0.004,-0.550591 -0.0136,-0.795451 -0.008,-0.245407 -0.0136,-0.478927 -0.0136,-0.701635 0,-0.05358 0.0263,-0.08046 0.0795,-0.08046 0.10614,0 0.18764,0.02007 0.24487,0.0604 0.0577,0.03974 0.0996,0.08203 0.12588,0.126843 0.0263,0.04482 0.0417,0.08671 0.0464,0.127233 0.004,0.04013 0.0119,0.05982 0.02,0.05982 0.0263,0 0.0574,-0.01559 0.0928,-0.04696 0.035,-0.03097 0.0721,-0.06449 0.11182,-0.09956 0.0402,-0.03605 0.0779,-0.06956 0.11278,-0.10053 0.035,-0.03137 0.0661,-0.04696 0.0928,-0.04696 h 0.13249 c 0.13249,0 0.22475,-0.02007 0.27786,-0.0604 0.0526,-0.04013 0.0903,-0.08457 0.11241,-0.134054 0.0221,-0.04891 0.0377,-0.09333 0.0464,-0.133468 0.008,-0.03974 0.035,-0.05982 0.0795,-0.05982 0.0263,0 0.0639,0.02007 0.11277,0.05982 0.0486,0.04013 0.0968,0.107169 0.14535,0.201061 0.0486,0.09333 0.0908,0.216004 0.12626,0.367047 0.035,0.151589 0.0526,0.334061 0.0526,0.548019 0,0.285584 -0.0119,0.646454 -0.033,1.083099 -0.0222,0.436666 -0.0489,0.902187 -0.0798,1.396566 -0.031,0.494903 -0.0592,0.993938 -0.0862,1.497084 -0.0263,0.50418 -0.0438,0.960932 -0.0526,1.370788 0.0968,-0.383045 0.21393,-0.808858 0.35107,-1.276951 0.13659,-0.467588 0.29538,-0.941877 0.47685,-1.423376 0.18043,-0.480992 0.37686,-0.951151 0.58873,-1.410477 0.21187,-0.458818 0.44128,-0.866588 0.68874,-1.222821 0.24695,-0.35674 0.50727,-0.643901 0.78102,-0.862478 0.27374,-0.21807 0.56037,-0.327358 0.86043,-0.327358 0.47684,0 0.86761,0.08865 1.17178,0.267561 0.30466,0.178476 0.54541,0.422733 0.72172,0.73462 0.17672,0.312413 0.29797,0.677921 0.36397,1.095999 0.0664,0.419128 0.10002,0.869179 0.10002,1.350679 0,0.410361 -0.0176,0.840304 -0.0535,1.289848 -0.035,0.450051 -0.0727,0.899597 -0.11239,1.350153 -0.0398,0.45007 -0.0748,0.893419 -0.10571,1.330065 -0.031,0.436644 -0.0464,0.847007 -0.0464,1.23005 0,0.471699 0.0262,0.897511 0.0793,1.276425 0.0532,0.378913 0.0795,0.666074 0.0795,0.861972 z m 7.13486,-0.02631 c 0.52996,0 1.05735,0.04853 1.58215,0.146912 0.52533,0.09801 1.00012,0.262922 1.4239,0.494379 0.42373,0.232 0.76605,0.536677 1.02639,0.915573 0.26035,0.378912 0.39024,0.853708 0.39024,1.423881 0,0.419129 -0.0968,0.84237 -0.29126,1.270268 -0.19446,0.426844 -0.46346,0.841336 -0.80782,1.242403 -0.34437,0.401593 -0.74802,0.780507 -1.21149,1.136214 -0.46345,0.356759 -0.96457,0.667109 -1.50275,0.929505 -0.53872,0.262917 -1.0991,0.470153 -1.68164,0.621203 -0.58255,0.152169 -1.1651,0.227343 -1.74764,0.227343 -0.47686,0 -0.92484,-0.05103 -1.34397,-0.153535 -0.41914,-0.102681 -0.78566,-0.256226 -1.0991,-0.460884 -0.31345,-0.205197 -0.56297,-0.461398 -0.74803,-0.768644 -0.1851,-0.307775 -0.27787,-0.670713 -0.27787,-1.089314 0,-0.410362 0.0795,-0.795451 0.23818,-1.156323 0.1588,-0.36087 0.36857,-0.692866 0.62894,-0.995984 0.26033,-0.303138 0.55831,-0.577403 0.89391,-0.822282 0.3351,-0.245388 0.68152,-0.450051 1.0393,-0.615006 0.35726,-0.164449 0.70833,-0.291798 1.05219,-0.380472 0.34438,-0.08962 0.65782,-0.134054 0.94031,-0.134054 0.15003,0.01753 0.25159,0.03819 0.30468,0.05983 0.0526,0.02279 0.0793,0.04735 0.0793,0.07424 0,0.02631 -0.0136,0.05982 -0.0398,0.09956 -0.0262,0.04073 -0.0397,0.07424 -0.0397,0.10053 0.0176,0.05358 0.0354,0.115539 0.053,0.187052 0.0176,0.07112 0.0262,0.142236 0.0262,0.21394 0,0.08865 -0.0156,0.166981 -0.0464,0.234045 -0.031,0.06644 -0.0948,0.109308 -0.19232,0.126845 -0.37064,0.08923 -0.77844,0.240748 -1.22435,0.454688 -0.44595,0.213938 -0.86506,0.46552 -1.2579,0.755235 -0.39284,0.289733 -0.72174,0.601621 -0.98672,0.93568 -0.26446,0.33406 -0.40159,0.670186 -0.41036,1.008885 0,0.160355 0.0752,0.276328 0.22478,0.347991 0.15061,0.07112 0.3624,0.106773 0.63564,0.106773 0.33561,0 0.73722,-0.04891 1.20531,-0.146913 0.46756,-0.09801 0.95318,-0.238178 1.45635,-0.421194 0.50316,-0.18257 0.9996,-0.405198 1.48935,-0.668121 0.49026,-0.262904 0.93155,-0.559338 1.32437,-0.888762 0.39284,-0.32993 0.70835,-0.68667 0.94702,-1.069715 0.23819,-0.383023 0.35728,-0.793386 0.35728,-1.230031 0,-0.213957 -0.0417,-0.380978 -0.12587,-0.5011 -0.084,-0.120027 -0.18101,-0.211873 -0.29127,-0.274262 -0.11029,-0.06177 -0.22528,-0.09995 -0.34438,-0.1134 -0.11907,-0.01364 -0.21858,-0.01949 -0.29796,-0.01949 -0.6269,0 -1.26665,0.03761 -1.91984,0.1134 -0.65316,0.07521 -1.24705,0.155682 -1.78113,0.240224 -0.53408,0.08515 -0.97278,0.165033 -1.31717,0.240749 -0.34437,0.0758 -0.52532,0.113993 -0.54284,0.113993 -0.19446,0 -0.37324,-0.04013 -0.53614,-0.120608 -0.16349,-0.07988 -0.30262,-0.182568 -0.41708,-0.307268 -0.11486,-0.125286 -0.20517,-0.269605 -0.27166,-0.434074 -0.066,-0.165032 -0.099,-0.3325 -0.099,-0.501586 0,-0.134054 0.0793,-0.327377 0.23818,-0.581513 0.15879,-0.254154 0.36602,-0.528418 0.62222,-0.822282 0.25623,-0.294351 0.54955,-0.583557 0.88054,-0.868655 0.33095,-0.285074 0.66448,-0.521714 0.99958,-0.708843 -0.30002,-0.160355 -0.56965,-0.356739 -0.80784,-0.588214 -0.23816,-0.231474 -0.4392,-0.480992 -0.60211,-0.748532 -0.16347,-0.267054 -0.28921,-0.550085 -0.37738,-0.848567 -0.0886,-0.299007 -0.1325,-0.603685 -0.1325,-0.915571 0,-0.606258 0.0836,-1.142917 0.25108,-1.611012 0.16815,-0.467586 0.38869,-0.875883 0.66246,-1.222822 0.27373,-0.347991 0.58048,-0.637704 0.9202,-0.869179 0.33973,-0.231475 0.6774,-0.419129 1.013,-0.561931 0.33562,-0.141846 0.65319,-0.242288 0.95322,-0.300022 0.30003,-0.05826 0.55159,-0.08709 0.75473,-0.08709 0.0973,0 0.17887,0.004 0.24489,0.01364 0.0664,0.0098 0.12624,0.02222 0.17884,0.03974 0.22066,-0.356215 0.4748,-0.737193 0.76145,-1.142917 0.28661,-0.405198 0.58253,-0.806284 0.88719,-1.203239 0.30469,-0.396432 0.60886,-0.774818 0.91351,-1.136217 0.30468,-0.360343 0.58254,-0.680999 0.83466,-0.961964 0.25105,-0.280441 0.465,-0.503673 0.64182,-0.668627 0.17633,-0.165034 0.29591,-0.246945 0.35777,-0.246945 0.0789,0 0.17633,0.05163 0.29076,0.154121 0.11485,0.1021 0.22527,0.21807 0.33148,0.346959 0.10559,0.128792 0.19642,0.254134 0.27117,0.374257 0.0748,0.120608 0.11239,0.203126 0.11239,0.246945 0,0.04482 -0.0176,0.08515 -0.0527,0.12119 -0.0357,0.03508 -0.0532,0.06644 -0.0532,0.09333 0,0.04442 0.0242,0.08243 0.0727,0.113993 0.0486,0.0304 0.12117,0.06858 0.21857,0.113401 0.0176,0.01753 0.031,0.02631 0.0398,0.02631 0.01,0 0.0136,0.0098 0.0136,0.02729 0,0.03566 -0.0574,0.09547 -0.17224,0.180426 -0.11436,0.08397 -0.30003,0.231456 -0.55573,0.440776 -0.2557,0.209302 -0.58669,0.501081 -0.9929,0.875864 -0.40623,0.374275 -0.90475,0.868673 -1.49657,1.483174 -0.14125,0.134051 -0.28663,0.299007 -0.43665,0.494903 -0.15002,0.195896 -0.31344,0.405725 -0.49026,0.628432 0.22941,0.12431 0.46811,0.289206 0.71502,0.494376 0.24746,0.205191 0.47017,0.44335 0.66865,0.715041 0.19899,0.271669 0.36241,0.581512 0.49027,0.928976 0.1278,0.347973 0.19172,0.722249 0.19172,1.123316 0,0.855775 -0.14127,1.572879 -0.42377,2.15182 -0.28251,0.579448 -0.64852,1.044968 -1.09909,1.397073 -0.45004,0.352102 -0.9532,0.603666 -1.50892,0.755234 -0.55629,0.151589 -1.10378,0.227344 -1.64196,0.227344 -0.1325,0 -0.2588,-0.004 -0.3779,-0.01364 -0.11869,-0.0078 -0.23559,-0.0222 -0.35056,-0.04013 -0.20259,0.134053 -0.43251,0.298989 -0.68873,0.494378 -0.25568,0.196424 -0.50727,0.410362 -0.75472,0.641836 -0.24696,0.231475 -0.47429,0.468094 -0.68204,0.708318 -0.20726,0.240242 -0.36396,0.468112 -0.46964,0.682051 0.35313,-0.0098 0.69285,-0.03819 1.01918,-0.08651 0.32686,-0.04949 0.65574,-0.105215 0.98671,-0.167565 0.33098,-0.06177 0.67328,-0.117493 1.02642,-0.166983 0.35314,-0.04891 0.73256,-0.07327 1.13828,-0.07327 z m -0.41036,-8.541734 c 0,-0.178866 0.1015,-0.481499 0.30469,-0.909376 -0.41501,0.133468 -0.78567,0.334059 -1.11251,0.601619 -0.32632,0.26754 -0.60421,0.570154 -0.83361,0.90887 -0.22994,0.338698 -0.40676,0.702141 -0.52995,1.089824 -0.12373,0.387661 -0.18549,0.77277 -0.18549,1.155794 0,0.276328 0.0329,0.541822 0.0995,0.795978 0.066,0.253628 0.1701,0.480464 0.3114,0.681525 0.14125,0.200535 0.32426,0.360871 0.54902,0.481499 0.22528,0.120213 0.5011,0.179842 0.82793,0.179842 0.35314,0 0.66865,-0.0645 0.94702,-0.19387 0.27736,-0.129377 0.52274,-0.298482 0.73463,-0.507783 0.21189,-0.209829 0.39026,-0.443349 0.53614,-0.702141 0.14536,-0.258286 0.26497,-0.514505 0.35777,-0.768134 0.0924,-0.254155 0.16075,-0.492838 0.20468,-0.715546 0.0444,-0.222706 0.0664,-0.400579 0.0664,-0.534613 0,-0.534595 -0.0862,-0.951132 -0.25827,-1.25014 -0.17227,-0.297975 -0.37273,-0.523254 -0.60215,-0.674823 -0.12371,0.151588 -0.25209,0.295909 -0.38458,0.43458 -0.1319,0.137754 -0.26909,0.278394 -0.41036,0.421195 -0.0176,0.01753 -0.0438,0.02631 -0.0793,0.02631 -0.0262,0 -0.0486,-0.01364 -0.066,-0.04013 -0.0175,-0.0263 -0.049,-0.03916 -0.0928,-0.03916 -0.0269,0 -0.0532,0.01364 -0.0795,0.03916 -0.0263,0.02728 -0.0619,0.04013 -0.10558,0.04013 -0.0617,0 -0.11029,-0.03508 -0.14594,-0.106773 -0.035,-0.07112 -0.053,-0.209301 -0.053,-0.413965 z m 21.05457,-9.063448 c -0.29127,0 -0.66399,0.05358 -1.11871,0.160356 -0.45468,0.106773 -0.93772,0.293844 -1.44964,0.561404 -0.51193,0.26756 -1.02384,0.621728 -1.53627,1.063012 -0.51191,0.440777 -0.97279,0.995478 -1.38366,1.664105 -0.41037,0.668647 -0.74597,1.458954 -1.0063,2.372968 -0.26037,0.913001 -0.39026,1.975506 -0.39026,3.18802 0,0.980009 0.099,1.851235 0.29745,2.613192 0.19899,0.761938 0.46605,1.427993 0.80165,1.998166 0.33508,0.570698 0.7212,1.054262 1.15837,1.450692 0.43666,0.39645 0.896,0.717104 1.37698,0.962492 0.48099,0.24486 0.96249,0.420669 1.44346,0.527891 0.48099,0.106773 0.93774,0.160356 1.37028,0.160356 0.0968,0 0.19172,0 0.28457,0 0.0928,0 0.18763,-0.0098 0.28457,-0.0263 0.18569,-0.05358 0.40366,-0.124702 0.65574,-0.21394 0.25157,-0.08923 0.51399,-0.209809 0.78773,-0.361379 0.27374,-0.151588 0.54285,-0.338697 0.80781,-0.560897 0.26448,-0.223213 0.50522,-0.492332 0.72123,-0.808856 0.21653,-0.316524 0.39542,-0.679461 0.53667,-1.089822 0.14126,-0.409836 0.22065,-0.882059 0.23817,-1.416653 0.009,-0.490267 -0.0465,-0.871246 -0.16544,-1.142936 -0.11907,-0.272199 -0.24486,-0.479434 -0.37735,-0.62171 l -0.74131,0.09333 c -0.3882,0.05359 -0.78568,0.129377 -1.19192,0.227853 -0.40572,0.09741 -0.78978,0.195389 -1.15168,0.293844 -0.3619,0.09801 -0.68873,0.182568 -0.98,0.254154 -0.29128,0.07112 -0.52068,0.1021 -0.68823,0.09275 -0.1325,-0.0098 -0.25622,-0.0304 -0.37067,-0.06644 -0.10608,-0.02689 -0.21446,-0.06916 -0.32477,-0.126845 -0.11029,-0.05768 -0.20106,-0.140676 -0.2717,-0.247957 -0.0438,0.02729 -0.0795,0.04073 -0.10571,0.04073 -0.0262,0 -0.0486,-0.004 -0.066,-0.01364 -0.0269,-0.0078 -0.0444,-0.02689 -0.0535,-0.053 -0.009,-0.02729 -0.0176,-0.05826 -0.0257,-0.09392 -0.0176,-0.08923 -0.0269,-0.209809 -0.0269,-0.361379 -0.0438,0 -0.0928,-0.01753 -0.14535,-0.05319 -0.0269,-0.01753 -0.049,-0.03975 -0.0664,-0.06702 -0.0438,-0.07112 -0.0836,-0.142236 -0.11907,-0.213432 -0.0357,-0.0717 -0.0314,-0.134052 0.0136,-0.187636 0.0176,-0.03566 0.0928,-0.09119 0.22531,-0.166591 0.13249,-0.07638 0.35777,-0.167566 0.67533,-0.274262 0.31756,-0.106774 0.74802,-0.229935 1.29138,-0.367574 0.54233,-0.138729 1.23778,-0.291778 2.0853,-0.461392 1.09447,-0.204663 2.04355,-0.343353 2.84673,-0.414491 0.80319,-0.07054 1.45636,-0.106774 1.95952,-0.106774 0.2825,0 0.51191,0.0058 0.68872,0.02007 0.17634,0.01364 0.30882,0.02883 0.39696,0.04696 0.20313,0.04442 0.36603,0.108714 0.49027,0.19387 0.12315,0.08397 0.22013,0.162305 0.29076,0.233541 0.0354,0.03605 0.0711,0.07988 0.10621,0.133468 0.0617,0.08046 0.13658,0.22785 0.22477,0.441788 0.0973,0.03508 0.16386,0.08865 0.19899,0.159773 0.0176,0.03566 0.0221,0.06702 0.0136,0.09333 -0.0175,0.08086 -0.0392,0.187636 -0.0655,0.321181 -0.027,0.134053 -0.0671,0.201061 -0.11969,0.201061 -0.0262,0.0098 -0.11708,0.01753 -0.27116,0.02572 -0.1547,0.0098 -0.35984,0.02318 -0.61606,0.04073 -0.25569,0.01753 -0.54955,0.03761 -0.88052,0.05983 -0.33095,0.0222 -0.68204,0.05163 -1.0527,0.0871 0.17672,0.204664 0.32685,0.450071 0.45006,0.734641 0.12372,0.285601 0.20776,0.59749 0.25208,0.936187 0.0613,0.436645 0.0198,0.900101 -0.12626,1.390368 -0.14536,0.490267 -0.37065,0.975896 -0.67533,1.457396 -0.30468,0.480972 -0.68615,0.941858 -1.14498,1.383141 -0.45882,0.441302 -0.97332,0.828964 -1.54248,1.163023 -0.56963,0.334588 -1.1898,0.599049 -1.86052,0.795472 -0.67068,0.195897 -1.37232,0.293319 -2.10487,0.293319 -0.42377,0 -0.86763,-0.0304 -1.33108,-0.09275 -0.46345,-0.06235 -0.93774,-0.171657 -1.42338,-0.327884 -0.48562,-0.155679 -0.97744,-0.362916 -1.47646,-0.621201 -0.49851,-0.258266 -0.99496,-0.584084 -1.48935,-0.976404 -0.94496,-0.739258 -1.64659,-1.695045 -2.10542,-2.866838 -0.45933,-1.1723 -0.67996,-2.609062 -0.66243,-4.311337 0,-0.721721 0.11721,-1.469748 0.35107,-2.245617 0.23405,-0.775364 0.56501,-1.53473 0.99288,-2.279151 0.42842,-0.743896 0.94033,-1.452232 1.53627,-2.125496 0.59596,-0.672252 1.2579,-1.267676 1.98582,-1.784247 0.72843,-0.517058 1.5141,-0.934122 2.3575,-1.249632 0.84287,-0.316525 1.72339,-0.492314 2.64103,-0.528399 0.29127,0 0.62894,0.02222 1.01353,0.06702 0.38354,0.04442 0.78101,0.117493 1.19136,0.220135 0.41038,0.102483 0.81403,0.234047 1.2115,0.394384 0.39745,0.160357 0.76143,0.356742 1.09238,0.588216 0.33098,0.231455 0.60679,0.50108 0.82793,0.808855 0.22015,0.307251 0.35675,0.656782 0.41037,1.049081 0.0614,0.454708 0.0326,0.864543 -0.0862,1.230052 -0.11968,0.365508 -0.28303,0.672757 -0.49027,0.922274 -0.20724,0.249518 -0.42994,0.438711 -0.66865,0.568108 -0.23868,0.129375 -0.44592,0.189777 -0.62223,0.18101 -0.12372,0.07988 -0.22991,0.13756 -0.31809,0.173216 -0.0881,0.03566 -0.16757,0.05826 -0.23816,0.06702 -0.0795,0.01753 -0.14535,0.01753 -0.19898,0 -0.0613,-0.02631 -0.10992,-0.06235 -0.14536,-0.107169 -0.035,-0.04442 -0.0592,-0.09587 -0.0727,-0.153537 -0.0136,-0.05768 0.002,-0.135613 0.0465,-0.23354 -0.19444,0.213939 -0.35518,0.369639 -0.48302,0.467586 -0.12841,0.09801 -0.23201,0.165423 -0.3114,0.200535 -0.0968,0.03566 -0.17222,0.04482 -0.22528,0.02689 -0.0793,-0.05319 -0.095,-0.1021 -0.0464,-0.146914 0.0486,-0.04482 0.13035,-0.111459 0.24489,-0.200532 0.11486,-0.08924 0.24743,-0.211895 0.39746,-0.367574 0.15002,-0.156264 0.2825,-0.367574 0.39747,-0.634608 0.053,-0.187634 0.1036,-0.401593 0.15197,-0.642342 0.0486,-0.240243 0.0727,-0.490267 0.0727,-0.748553 0,-0.48974 -0.0882,-0.908343 -0.26498,-1.256842 -0.17634,-0.346959 -0.41243,-0.632036 -0.70834,-0.854742 -0.29539,-0.222707 -0.64182,-0.383044 -1.0393,-0.481499 -0.39696,-0.09801 -0.8207,-0.146913 -1.27129,-0.146913 z m 18.65479,12.565421 c 0,0.935681 -0.13464,1.778031 -0.40367,2.526057 -0.26908,0.749059 -0.6351,1.386258 -1.09856,1.911577 -0.46346,0.526352 -0.99961,0.93155 -1.60897,1.216645 -0.60936,0.285077 -1.25324,0.427878 -1.93323,0.427878 -0.2825,0 -0.59182,-0.03351 -0.9269,-0.100529 -0.33561,-0.06644 -0.67122,-0.17575 -1.0063,-0.327358 -0.33562,-0.151589 -0.66194,-0.352104 -0.98002,-0.601113 -0.31755,-0.250025 -0.60006,-0.556768 -0.84702,-0.922276 -0.24744,-0.365508 -0.44384,-0.793386 -0.58924,-1.28416 -0.14594,-0.489759 -0.21445,-1.055295 -0.20568,-1.697112 0,-0.730509 0.088,-1.397071 0.26496,-1.998692 0.17673,-0.601618 0.40416,-1.14087 0.68205,-1.6167 0.27789,-0.477369 0.59336,-0.889793 0.94651,-1.236733 0.35314,-0.347467 0.70627,-0.639771 1.05941,-0.875883 0.35313,-0.236619 0.69286,-0.412408 1.01919,-0.527891 0.32685,-0.115935 0.60936,-0.182569 0.84751,-0.201061 0.12372,-0.0078 0.17887,0.0058 0.16601,0.04013 -0.0136,0.03605 -0.0465,0.07638 -0.10002,0.120608 -0.0527,0.04442 -0.099,0.08923 -0.13873,0.134052 -0.0398,0.04442 -0.0239,0.07112 0.0464,0.07949 0.0619,0.01949 0.11238,0.03605 0.15257,0.05417 0.0397,0.01753 0.0813,0.03974 0.12586,0.06702 l 0.10571,-0.12119 c 0.0619,-0.04442 0.12166,-0.06644 0.17887,-0.06644 0.0574,0 0.10843,0.0058 0.15197,0.01968 0.0444,0.01364 0.0794,0.02066 0.10621,0.02066 0.0262,0 0.0438,-0.02689 0.0527,-0.08046 0.0176,-0.09741 0.0511,-0.153148 0.0997,-0.166982 0.0486,-0.01364 0.16072,-0.02007 0.33716,-0.02007 0.1062,0 0.26755,0.03097 0.48354,0.09391 0.21655,0.06235 0.4547,0.169514 0.71506,0.321181 0.26033,0.151005 0.52531,0.353643 0.79494,0.607797 0.26911,0.253628 0.51602,0.574303 0.7408,0.962491 0.22527,0.387155 0.40883,0.848546 0.54956,1.383665 0.14126,0.534594 0.21187,1.153751 0.21187,1.857957 z m -4.77996,-3.916446 c -0.30878,0.186661 -0.61346,0.440777 -0.91351,0.761939 -0.30003,0.320655 -0.57171,0.690293 -0.81399,1.108896 -0.24282,0.41913 -0.43926,0.887223 -0.58924,1.403775 -0.15063,0.517078 -0.22532,1.060946 -0.22532,1.631118 0,0.614519 0.0551,1.171794 0.16543,1.670827 0.11028,0.499016 0.27167,0.924848 0.48354,1.276424 0.21189,0.352629 0.46965,0.624319 0.77433,0.815579 0.30468,0.191727 0.65111,0.287649 1.0393,0.287649 0.34437,0 0.68616,-0.09839 1.0264,-0.29435 0.33973,-0.195918 0.64184,-0.490268 0.90682,-0.882081 0.26496,-0.392299 0.47892,-0.877928 0.64234,-1.457376 0.16348,-0.579446 0.24487,-1.252224 0.24487,-2.018799 0,-0.774837 -0.10151,-1.425421 -0.30466,-1.951772 -0.20313,-0.52532 -0.43047,-0.950645 -0.68152,-1.275938 -0.25158,-0.325292 -0.49233,-0.556767 -0.72175,-0.695438 -0.22941,-0.138145 -0.37068,-0.206729 -0.42427,-0.206729 -0.12315,0 -0.21806,0 -0.28457,0 -0.066,0 -0.17419,-0.05826 -0.32429,-0.173801 z m 14.63268,1.724429 c 0.009,0.311382 -0.0175,0.69234 -0.0797,1.142917 -0.0619,0.449544 -0.13191,0.931043 -0.21191,1.443464 -0.0794,0.51244 -0.15412,1.035694 -0.22528,1.570814 -0.0707,0.534593 -0.10571,1.038266 -0.10571,1.510491 0,0.311887 0.0223,0.607797 0.066,0.888762 0.0444,0.28044 0.11968,0.52378 0.22528,0.728951 0.0617,0.115539 0.0948,0.218069 0.099,0.307249 0.004,0.08923 -0.002,0.166982 -0.0197,0.233541 -0.0176,0.06702 -0.035,0.125284 -0.0527,0.173801 -0.0175,0.04949 -0.0175,0.09587 0,0.140677 0.0176,0.04442 0.0136,0.09587 -0.0136,0.153538 -0.0262,0.05768 -0.066,0.111459 -0.11869,0.160356 -0.0532,0.04891 -0.11276,0.08515 -0.17885,0.107169 -0.066,0.02164 -0.12588,0.01559 -0.17887,-0.02007 -0.0968,-0.06293 -0.17419,-0.09801 -0.23147,-0.106774 -0.0574,-0.0098 -0.10621,-0.0058 -0.14536,0.0058 -0.0402,0.01364 -0.0758,0.02883 -0.1067,0.04696 -0.0304,0.01753 -0.068,0.01753 -0.11177,0 -0.15063,-0.08046 -0.31397,-0.173801 -0.49027,-0.280966 -0.17673,-0.107169 -0.29128,-0.222707 -0.34437,-0.347445 -0.0357,-0.05358 -0.0686,-0.142822 -0.099,-0.267053 -0.031,-0.125285 -0.0576,-0.272198 -0.0798,-0.441284 -0.0216,-0.169125 -0.0417,-0.351596 -0.0592,-0.547998 -0.0176,-0.196422 -0.0309,-0.387682 -0.0398,-0.575336 -0.29128,0.553162 -0.60266,1.011455 -0.93363,1.376963 -0.33097,0.365508 -0.66194,0.657814 -0.99342,0.87639 -0.33097,0.218069 -0.6573,0.371704 -0.97899,0.460884 -0.3227,0.08865 -0.61605,0.133468 -0.88101,0.133468 -0.27376,0 -0.51398,-0.03605 -0.72175,-0.107169 -0.20723,-0.0717 -0.36808,-0.155681 -0.48304,-0.253648 -0.43254,-0.436646 -0.73928,-0.790813 -0.92023,-1.063012 -0.18101,-0.271691 -0.2629,-0.491806 -0.24538,-0.661418 0.0444,-0.570171 0.18101,-1.096524 0.41089,-1.578022 0.2294,-0.480466 0.51601,-0.924342 0.86091,-1.329539 0.34386,-0.405198 0.72998,-0.770706 1.15787,-1.095999 0.4284,-0.325311 0.86558,-0.615025 1.31099,-0.868674 0.44592,-0.254154 0.88515,-0.468093 1.31767,-0.641815 0.43252,-0.173802 0.82536,-0.314478 1.1785,-0.421702 -0.0175,-0.480467 -0.0377,-0.901661 -0.0598,-1.262531 -0.0223,-0.360872 -0.055,-0.626366 -0.0996,-0.795452 -0.13191,-0.552637 -0.33509,-0.964538 -0.60885,-1.236734 -0.27373,-0.271691 -0.6047,-0.407789 -0.9929,-0.407789 -0.24744,0 -0.49645,0.09372 -0.74804,0.280439 -0.25156,0.187634 -0.4789,0.441809 -0.68203,0.761957 -0.2031,0.320655 -0.3686,0.690801 -0.49643,1.10993 -0.12783,0.41911 -0.19644,0.859886 -0.20571,1.322836 0,0.116516 0.004,0.22785 0.0136,0.334568 0.01,0.107169 0.0216,0.218576 0.0398,0.334059 0.009,0.06293 -0.0124,0.107169 -0.0598,0.134052 -0.0486,0.02631 -0.10843,0.04696 -0.17886,0.05983 -0.0705,0.01364 -0.14535,0.02474 -0.22528,0.03409 -0.0789,0.0078 -0.14535,0.02222 -0.19847,0.03975 -0.0444,0.01753 -0.0795,0.02943 -0.10558,0.03351 -0.027,0.004 -0.0532,0 -0.0795,-0.01364 -0.0262,-0.01364 -0.0598,-0.03819 -0.0996,-0.07425 -0.0397,-0.03508 -0.0948,-0.07988 -0.16542,-0.133468 -0.0705,-0.05358 -0.14319,-0.09801 -0.21858,-0.134053 -0.0752,-0.03508 -0.14125,-0.06644 -0.19845,-0.09275 -0.0576,-0.02689 -0.10608,-0.05163 -0.14594,-0.07424 -0.0393,-0.02164 -0.0592,-0.05106 -0.0592,-0.08651 0,-0.55213 0.12153,-1.122808 0.36396,-1.711024 0.24283,-0.587708 0.56966,-1.124874 0.98001,-1.61103 0.41037,-0.485102 0.88724,-0.883599 1.43009,-1.196012 0.54283,-0.311887 1.11867,-0.468094 1.72802,-0.468094 0.49388,0 0.92176,0.07638 1.28367,0.227344 0.3624,0.151588 0.67121,0.347973 0.92744,0.588215 0.25568,0.240751 0.46552,0.50831 0.62893,0.802154 0.16347,0.293846 0.29126,0.59028 0.38405,0.888762 0.0929,0.299008 0.1588,0.579448 0.19849,0.842371 0.0398,0.263428 0.064,0.479433 0.0733,0.648538 z m -2.39719,2.379145 c -0.26447,0.09801 -0.55626,0.227344 -0.87382,0.387156 -0.31758,0.160744 -0.63976,0.350564 -0.96609,0.568631 -0.32685,0.218072 -0.65368,0.47016 -0.98004,0.755764 -0.32682,0.284568 -0.63151,0.601092 -0.9135,0.948052 -0.33559,0.401594 -0.5784,0.757807 -0.72895,1.07022 -0.14944,0.311888 -0.24229,0.57635 -0.27787,0.794419 -0.035,0.219103 -0.0262,0.390779 0.0269,0.515539 0.0527,0.12431 0.11437,0.200533 0.1851,0.227343 0.27375,0.106774 0.55831,0.117493 0.85422,0.03292 0.29592,-0.08457 0.59131,-0.236113 0.88724,-0.454689 0.29538,-0.218069 0.58254,-0.480466 0.86091,-0.788243 0.27737,-0.307775 0.54028,-0.624299 0.78721,-0.94959 0.24745,-0.325294 0.46809,-0.645442 0.66245,-0.961966 0.19386,-0.316544 0.35263,-0.590807 0.47635,-0.822261 z m 8.22312,-10.266162 c 0,0.05358 -0.009,0.193284 -0.0266,0.420669 -0.0176,0.227849 -0.0417,0.528416 -0.0727,0.902166 -0.031,0.374783 -0.068,0.809363 -0.11239,1.303761 -0.0444,0.494397 -0.0881,1.026927 -0.13249,1.597098 0.55574,-0.07112 1.08313,-0.126843 1.58215,-0.166591 0.49851,-0.04014 0.92023,-0.06079 1.26458,-0.06079 0.11486,0 0.21654,0.0226 0.30468,0.06702 0.088,0.04442 0.16133,0.09587 0.21858,0.153733 0.0574,0.05768 0.10361,0.120027 0.13873,0.187635 0.0354,0.06644 0.0576,0.122166 0.066,0.166981 0,0.04482 0.004,0.08651 0.0136,0.126844 0.01,0.04013 0.0136,0.08301 0.0136,0.126843 0,0.178282 -0.0774,0.35674 -0.23147,0.534594 -0.15471,0.178867 -0.38664,0.29024 -0.69544,0.334587 l -2.82042,0.307249 c -0.0444,0.641816 -0.084,1.301188 -0.11907,1.978584 -0.0357,0.677395 -0.0686,1.352218 -0.0997,2.025502 -0.0304,0.672232 -0.0545,1.334176 -0.0727,1.984762 -0.0175,0.650602 -0.0262,1.26561 -0.0262,1.844548 0,0.374278 0.01,0.676889 0.0262,0.908872 0.0176,0.23198 0.027,0.383551 0.027,0.454688 0,0.151588 -0.0288,0.301073 -0.0862,0.447479 -0.0574,0.147496 -0.12372,0.280966 -0.1985,0.401593 -0.0752,0.120027 -0.15469,0.218596 -0.23867,0.293844 -0.0839,0.07521 -0.15255,0.1134 -0.20517,0.1134 -0.31809,0 -0.56913,-0.100529 -0.75472,-0.300546 -0.18511,-0.200533 -0.32427,-0.47016 -0.41707,-0.80835 -0.0928,-0.339204 -0.15257,-0.726885 -0.17888,-1.16353 -0.0262,-0.436647 -0.0398,-0.890829 -0.0398,-1.36356 0,-1.113534 0.031,-2.230167 0.0928,-3.347832 0.0617,-1.119204 0.15004,-2.195093 0.26501,-3.228723 l -1.65537,0.200534 c -0.0263,0 -0.0532,0.004 -0.0799,0.01364 -0.0262,0.0098 -0.0567,0.01364 -0.0924,0.01364 -0.16755,0 -0.3026,-0.04073 -0.40416,-0.121189 -0.10113,-0.07988 -0.17828,-0.173801 -0.23147,-0.28046 -0.0527,-0.107168 -0.0856,-0.21651 -0.099,-0.327355 -0.0136,-0.11146 -0.02,-0.197964 -0.02,-0.260858 0,-0.124701 0.0175,-0.240749 0.053,-0.347467 0.0357,-0.106773 0.1015,-0.173799 0.19848,-0.200533 0.18548,-0.07112 0.50985,-0.149055 0.97331,-0.234046 0.46346,-0.08457 0.9862,-0.171658 1.56926,-0.260859 0.0968,-0.721742 0.19589,-1.383157 0.29746,-1.984759 0.1015,-0.601621 0.20105,-1.122828 0.29798,-1.564112 0.0973,-0.441283 0.18763,-0.784111 0.27167,-1.029498 0.0836,-0.244373 0.15666,-0.367572 0.21857,-0.367572 0.0176,0 0.0398,0.004 0.066,0.01364 0.0262,0.0098 0.0486,0.01364 0.0664,0.01364 0.0527,0 0.0943,-0.02943 0.12528,-0.08709 0.031,-0.05826 0.0909,-0.0871 0.17887,-0.0871 0.0793,0 0.16542,0.02416 0.25826,0.07365 0.0929,0.04891 0.17692,0.109308 0.25159,0.180425 0.0748,0.0717 0.13911,0.144964 0.19231,0.220135 0.0532,0.07638 0.0793,0.136586 0.0793,0.181011 z"
         fill="var(--brand)"
         id="path4"
         style="fill:#c19649;fill-opacity:1;stroke-width:0.515525"
         inkscape:export-filename="path4.png"
         inkscape:export-xdpi="96"
         inkscape:export-ydpi="96"><title
           id="title4">Text</title></path><g
         id="g1"
         transform="matrix(0.73114415,0,0,0.73114415,-1.8402947,20.5166)"><path
           style="fill:#c19649;fill-opacity:1;stroke-width:0px"
           d="m 57.278103,77.097096 c 1.58274,3.920072 5.42681,0.97007 6.59547,4.438492 0.11457,3.057003 1.03178,4.757663 3.05717,5.063263 -1.24196,-0.87868 -1.35667,-3.61126 -0.97461,-5.216223 -4.20344,-4.012402 -6.35843,-1.23303 -8.67803,-4.285532 z"
           id="path87" /><path
           style="fill:#c19649;fill-opacity:1;stroke-width:0px"
           d="m 47.289053,74.504496 c 0.19084,6.734222 -5.03374,14.124415 -9.31106,15.815055 2.70514,-1.06502 4.20206,-1.05625 7.3241,-4.63796 -0.43526,1.37835 -1.20206,2.46068 -1.61799,2.57039 2.17628,-0.33087 3.11134,-2.29484 3.41426,-3.46801 0.21823,-0.92499 0.57275,-1.18468 0.19069,-10.279475 z m -3.60495,13.747485 c -0.0211,0.003 -0.0422,0.006 -0.0636,0.009 0.0201,-2e-4 0.0413,-0.003 0.0636,-0.009 z"
           id="path86" /><path
           style="fill:#c19649;fill-opacity:1;stroke-width:0px"
           d="m 35.375563,56.925716 c -3.72964,-0.05645 -6.79476,0.61104 -7.70857,1.01338 3.34301,-0.61119 17.82366,-1.91821 22.33507,8.59792 0.0291,-0.0283 2.67529,1.28003 2.67529,1.28003 -3.02353,-8.69272 -11.08572,-10.79723 -17.30179,-10.89133 z"
           id="path85" /><path
           style="fill:#c19649;fill-opacity:1;stroke-width:0px"
           d="m 41.428433,53.240676 c -7.4688,-0.28721 -14.9901,2.51608 -16.83877,3.73724 0.78824,-0.45247 11.75093,-4.27399 20.97391,0.17983 0.98054,0.0169 3.23491,-0.02121 5.29839,1.18287 -1.60496,-0.3249 -3.40079,-0.12418 -3.40238,-0.1173 0.6313,0.41037 1.24453,0.86811 1.83296,1.37769 0.38523,-0.0571 2.62035,0.36352 3.8623,1.35703 -1.05981,-0.30269 -2.68202,-0.24079 -2.70888,-0.25219 0.51185,0.5394 0.99933,1.12723 1.45934,1.76527 0.91413,0.12594 2.25278,0.51203 3.2365,1.27641 -0.54504,-0.25771 -2.53184,-0.26766 -2.51199,-0.25787 0.24606,0.39582 0.43344,0.80042 0.65887,1.23249 0.42042,0.87868 1.56681,4.7689 1.49035,4.73821 0.0328,-0.007 -2.41666,-0.97053 -3.78323,-1.29915 -2.75114,-2.82786 -7.20914,-2.45732 -6.95461,-2.33112 1.18453,4.318 4.72374,4.46174 4.72374,4.46174 -1.34831,7.88564 1.45668,13.866045 -2.28823,17.649055 -4.49047,3.22709 -10.51182,3.79838 -17.10645,4.2106 -4.0825,-7.06403 -9.216524,-16.053325 -9.211844,-16.195395 0.005,-0.19394 9.818894,-16.75839 9.935314,-17.23358 l -2.47427,0.19017 -9.778224,17.04392 15.156194,26.519834 c 0,0 30.54202,0.0167 30.69786,-0.078 0.20029,-0.12144 15.00012,-26.458334 15.00012,-26.458334 -4.7e-4,7.1e-4 -15.99468,24.391994 -16.23518,24.548894 -0.0366,0.0238 -1.85695,0.0441 -4.55632,0.0594 1.95643,-3.909559 0.68497,-7.827389 -0.27801,-9.892419 0.0708,0.11442 2.77446,3.10009 2.35954,6.49418 5.31177,-10.58493 -5.26867,-14.472423 -3.16311,-21.498435 2.19445,3.726132 5.10324,0.75779 9.22941,5.081352 0.51753,0.68553 2.6757,-1.50653 2.13992,-2.216412 -0.29342,0.32094 -2.04579,-1.14107 -1.79576,-1.41386 l 2.0252,0.80253 c 0.88212,-1.62031 -2.12116,-2.82803 -5.08237,-5.27358 -3.13373,-2.69399 -2.19744,-2.88477 -5.38831,-4.58525 -1.63721,-11.14079 -9.05319,-14.5186 -16.52198,-14.80581 z m -16.83877,3.73724 c -0.0173,0.0099 -0.0298,0.01825 -0.0372,0.0248 0.0121,-0.0082 0.0246,-0.01648 0.0372,-0.0248 z m 23.13916,12.38684 c -0.91704,-0.36301 0.12912,0.1569 0,0 z m 9.05629,1.01286 c 0.40507,0.85434 2.27657,1.958519 3.07905,1.824909 l 0.99099,1.346471 c -2.52228,0.38232 -4.03168,-2.06331 -4.07004,-3.17138 z"
           id="path84"
           sodipodi:nodetypes="scccccccccccccccccccccccccccccccccccssccccccccc" /><path
           style="fill:#c19649;fill-opacity:1;stroke-width:0px"
           d="m 33.121443,49.482246 c -0.21982,0.08455 -2.2581,3.76544 -2.26395,3.776 0.007,-0.0014 2.53231,-0.5598 2.66496,-0.63511 0.32173,-0.18256 0.55564,-0.88641 0.80408,-1.04489 0.13732,-0.0868 23.5112,-0.08051 27.55853,-0.01861 -4.15316,-0.23389 -28.66466,-2.11519 -28.76362,-2.07739 z"
           id="path2" /><path
           style="fill:#222222;fill-opacity:1;stroke:#000000;stroke-width:0;stroke-dasharray:none"
           d="m 56.788592,70.401347 c 0.28912,0.512193 1.88806,1.828093 3.07537,1.802458 0.95326,1.311793 0.6542,0.89404 0.98365,1.33897 -2.31549,0.366971 -3.93687,-1.723972 -4.05902,-3.141428 z"
           id="path90"
           sodipodi:nodetypes="cccc" /></g></g></g></svg>
