<?xml version="1.0" encoding="UTF-8" standalone="no"?>
<!-- Created with Inkscape (http://www.inkscape.org/) -->

<svg
   width="210mm"
   height="297mm"
   viewBox="0 0 210 297"
   version="1.1"
   id="svg1"
   xml:space="preserve"
   sodipodi:docname="Only Logo - 06675cc-example.svg"
   inkscape:version="1.4.2 (f4327f4, 2025-05-13)"
   inkscape:export-filename="Only Logo.png"
   inkscape:export-xdpi="96"
   inkscape:export-ydpi="96"
   xmlns:inkscape="http://www.inkscape.org/namespaces/inkscape"
   xmlns:sodipodi="http://sodipodi.sourceforge.net/DTD/sodipodi-0.dtd"
   xmlns:xlink="http://www.w3.org/1999/xlink"
   xmlns="http://www.w3.org/2000/svg"
   xmlns:svg="http://www.w3.org/2000/svg"><sodipodi:namedview
     id="namedview1"
     pagecolor="#ffffff"
     bordercolor="#000000"
     borderopacity="0.25"
     inkscape:showpageshadow="2"
     inkscape:pageopacity="0.0"
     inkscape:pagecheckerboard="0"
     inkscape:deskcolor="#d1d1d1"
     inkscape:document-units="mm"
     inkscape:zoom="0.8963819"
     inkscape:cx="240.96872"
     inkscape:cy="652.06582"
     inkscape:window-width="3440"
     inkscape:window-height="1369"
     inkscape:window-x="-8"
     inkscape:window-y="-8"
     inkscape:window-maximized="1"
     inkscape:current-layer="g2" /><defs
     id="defs1"><linearGradient
       id="linearGradient1"
       inkscape:collect="always"><stop
         style="stop-color:#06675c;stop-opacity:1;"
         offset="0"
         id="stop1" /><stop
         style="stop-color:#06675c;stop-opacity:0.75921911;"
         offset="0.65562916"
         id="stop2" /></linearGradient><style
       id="style1">
      :root {--brand: #4C8044;}
    </style><linearGradient
       inkscape:collect="always"
       xlink:href="#linearGradient1"
       id="linearGradient2"
       x1="66.002072"
       y1="107.05581"
       x2="143.87675"
       y2="107.05581"
       gradientUnits="userSpaceOnUse" /></defs><g
     inkscape:label="Layer 1"
     inkscape:groupmode="layer"
     id="layer1"><g
       id="g2"
       transform="matrix(2.6632226,0,0,2.6632226,-174.47702,-136.61346)"><rect
         style="fill:url(#linearGradient2);fill-opacity:1;stroke:#000000;stroke-width:0.195501"
         id="rect58"
         width="77.679176"
         height="77.679176"
         x="66.099823"
         y="68.216225" /><g
         id="g3"
         transform="matrix(0.92168589,0,0,0.92168589,8.4443788,23.689619)"><g
           id="g1"
           transform="translate(-0.54047604,1.5999081)"><path
             style="fill:#c19649;fill-opacity:1;stroke-width:0px"
             d="m 114.24432,89.967241 c 1.58274,3.920073 5.42681,0.970071 6.59547,4.438492 0.11457,3.057003 1.03178,4.757663 3.05717,5.063264 -1.24196,-0.878681 -1.35667,-3.61126 -0.97461,-5.216223 -4.20344,-4.012402 -6.35843,-1.23303 -8.67803,-4.285533 z"
             id="path87" /><path
             style="fill:#c19649;fill-opacity:1;stroke-width:0px"
             d="m 104.25527,87.374641 c 0.19084,6.734222 -5.033739,14.124419 -9.311059,15.815059 2.70514,-1.06502 4.20206,-1.05625 7.324099,-4.637964 -0.43526,1.37835 -1.20206,2.460684 -1.61799,2.570394 2.17628,-0.33087 3.11134,-2.294844 3.41426,-3.468014 0.21823,-0.92499 0.57275,-1.18468 0.19069,-10.279475 z m -3.60495,13.747489 c -0.0211,0.003 -0.0422,0.006 -0.0636,0.009 0.0201,-2e-4 0.0413,-0.003 0.0636,-0.009 z"
             id="path86" /><path
             style="fill:#c19649;fill-opacity:1;stroke-width:0px"
             d="m 92.341781,69.795861 c -3.72964,-0.05645 -6.79476,0.611041 -7.70857,1.01338 3.34301,-0.611189 17.823659,-1.91821 22.335069,8.59792 0.0291,-0.0283 2.67529,1.28003 2.67529,1.28003 -3.02353,-8.692719 -11.085719,-10.79723 -17.301789,-10.89133 z"
             id="path85" /><path
             style="fill:#c19649;fill-opacity:1;stroke-width:0px"
             d="m 98.394651,66.110821 c -7.4688,-0.28721 -14.9901,2.516081 -16.83877,3.73724 0.78824,-0.45247 11.75093,-4.273989 20.973909,0.17983 0.98054,0.0169 3.23491,-0.02121 5.29839,1.18287 -1.60496,-0.3249 -3.40079,-0.12418 -3.40238,-0.1173 0.6313,0.41037 1.24453,0.86811 1.83296,1.37769 0.38523,-0.0571 2.62035,0.36352 3.8623,1.35703 -1.05981,-0.30269 -2.68202,-0.24079 -2.70888,-0.25219 0.51185,0.5394 0.99933,1.12723 1.45934,1.76527 0.91413,0.12594 2.25278,0.51203 3.2365,1.27641 -0.54504,-0.25771 -2.53184,-0.26766 -2.51199,-0.25787 0.24606,0.39582 0.43344,0.80042 0.65887,1.23249 0.42042,0.87868 1.56681,4.7689 1.49035,4.73821 0.0328,-0.007 -2.41666,-0.97053 -3.78323,-1.29915 -2.75114,-2.82786 -7.20914,-2.45732 -6.95461,-2.33112 1.18453,4.318 4.72374,4.46174 4.72374,4.46174 -1.34831,7.88564 1.45668,13.866045 -2.28823,17.649059 -4.490469,3.22709 -10.511819,3.79838 -17.106449,4.2106 -4.0825,-7.064034 -9.216524,-16.053329 -9.211844,-16.195399 0.005,-0.19394 9.818894,-16.75839 9.935314,-17.23358 l -2.47427,0.19017 -9.778224,17.04392 15.156194,26.519839 c 0,0 30.542019,0.0167 30.697859,-0.078 0.20029,-0.12144 15.00012,-26.458339 15.00012,-26.458339 -4.7e-4,7.1e-4 -15.99468,24.391999 -16.23518,24.548899 -0.0366,0.0238 -1.85695,0.0441 -4.55632,0.0594 1.95643,-3.90956 0.68497,-7.82739 -0.27801,-9.89242 0.0708,0.11442 2.77446,3.10009 2.35954,6.49418 5.31177,-10.584934 -5.26867,-14.472427 -3.16311,-21.498439 2.19445,3.726132 5.10324,0.75779 9.22941,5.081352 0.51753,0.68553 2.6757,-1.50653 2.13992,-2.216412 -0.29342,0.32094 -2.04579,-1.14107 -1.79576,-1.41386 l 2.0252,0.80253 c 0.88212,-1.62031 -2.12116,-2.82803 -5.08237,-5.27358 -3.13373,-2.69399 -2.19744,-2.88477 -5.38831,-4.58525 -1.63721,-11.14079 -9.05319,-14.5186 -16.521979,-14.80581 z m -16.83877,3.73724 c -0.0173,0.0099 -0.0298,0.01825 -0.0372,0.0248 0.0121,-0.0082 0.0246,-0.01648 0.0372,-0.0248 z m 23.139159,12.38684 c -0.91704,-0.36301 0.12912,0.1569 0,0 z m 9.05629,1.01286 c 0.40507,0.85434 2.27657,1.958519 3.07905,1.824909 l 0.99099,1.346471 c -2.52228,0.382321 -4.03168,-2.06331 -4.07004,-3.17138 z"
             id="path84"
             sodipodi:nodetypes="scccccccccccccccccccccccccccccccccccssccccccccc" /><path
             style="fill:#c19649;fill-opacity:1;stroke-width:0px"
             d="m 90.087661,62.352391 c -0.21982,0.08455 -2.2581,3.76544 -2.26395,3.776 0.007,-0.0014 2.53231,-0.5598 2.66496,-0.63511 0.32173,-0.18256 0.55564,-0.88641 0.80408,-1.04489 0.13732,-0.0868 23.511199,-0.08051 27.558529,-0.01861 -4.15316,-0.23389 -28.664659,-2.11519 -28.763619,-2.07739 z"
             id="path2" /><path
             style="fill:#222222;fill-opacity:1;stroke:#000000;stroke-width:0;stroke-dasharray:none"
             d="m 113.75481,83.271493 c 0.28912,0.512193 1.88806,1.828093 3.07537,1.802458 0.95326,1.311793 0.6542,0.89404 0.98365,1.33897 -2.31549,0.366971 -3.93687,-1.723972 -4.05902,-3.141428 z"
             id="path90"
             sodipodi:nodetypes="cccc" /></g></g></g></g></svg>
