<?xml version="1.0" encoding="UTF-8" standalone="no"?>
<svg
   version="1.1"
   width="1002.27px"
   height="867.402px"
   id="svg13"
   sodipodi:docname="Drill Stencil All sides.svg"
   inkscape:version="1.4.2 (f4327f4, 2025-05-13)"
   xmlns:inkscape="http://www.inkscape.org/namespaces/inkscape"
   xmlns:sodipodi="http://sodipodi.sourceforge.net/DTD/sodipodi-0.dtd"
   xmlns="http://www.w3.org/2000/svg"
   xmlns:svg="http://www.w3.org/2000/svg">
  <defs
     id="defs13" />
  <sodipodi:namedview
     id="namedview13"
     pagecolor="#ffffff"
     bordercolor="#000000"
     borderopacity="0.25"
     inkscape:showpageshadow="2"
     inkscape:pageopacity="0.0"
     inkscape:pagecheckerboard="0"
     inkscape:deskcolor="#d1d1d1"
     inkscape:zoom="0.49441928"
     inkscape:cx="780.71389"
     inkscape:cy="743.29625"
     inkscape:window-width="2400"
     inkscape:window-height="1494"
     inkscape:window-x="-11"
     inkscape:window-y="-11"
     inkscape:window-maximized="1"
     inkscape:current-layer="svg13" />
  <path
     d="M751.872 867.393 C751.872 867.393, 251.082 867.399, 251.082 867.399 C251.082 867.399, 246.583 859.607, 244.333 855.71 C31.2424 486.618, 0.692382 433.704, 0.692382 433.704 C0.692382 433.704, 251.085 0.00299889, 251.085 0.00299889 C251.085 0.00299889, 751.878 0, 751.878 0 C751.878 0, 1002.27 433.695, 1002.27 433.695 C918.805 578.261, 835.339 722.827, 751.872 867.393 Z "
     stroke="black"
     stroke-width="1"
     fill="none"
     id="path1" />
  <path
     d="M692.878 596.909 C693.297 596.612, 693.716 596.315, 694.135 596.017 C735.724 572.006, 748.892 564.404, 762.06 556.801 C762.527 556.587, 762.994 556.372, 763.461 556.158 C763.964 556.032, 764.467 555.906, 764.97 555.78 C765.497 555.745, 766.024 555.71, 766.551 555.675 C767.089 555.732, 767.627 555.79, 768.164 555.847 C768.699 555.995, 769.234 556.143, 769.769 556.291 C770.29 556.524, 770.81 556.758, 771.33 556.991 C771.822 557.308, 772.313 557.625, 772.805 557.942 C773.256 558.332, 773.708 558.721, 774.16 559.111 C774.56 559.564, 774.959 560.017, 775.359 560.47 C775.698 560.975, 776.036 561.481, 776.375 561.987 C777.177 563.377, 777.98 564.767, 778.782 566.157 C782.907 573.3, 791.155 587.588, 791.155 587.588 C791.155 587.588, 879.999 433.702, 879.999 433.702 C879.999 433.702, 690.735 105.888, 690.735 105.888 C690.735 105.888, 312.215 105.884, 312.215 105.884 C312.215 105.884, 122.959 433.694, 122.959 433.694 C122.959 433.694, 312.222 761.508, 312.222 761.508 C312.222 761.508, 690.742 761.512, 690.742 761.512 C690.742 761.512, 734.552 685.63, 734.552 685.63 C734.552 685.63, 704.197 633.053, 693.876 615.177 C693.074 613.787, 692.271 612.397, 691.469 611.007 C691.2 610.461, 690.931 609.915, 690.663 609.369 C690.47 608.797, 690.278 608.224, 690.085 607.651 C689.974 607.065, 689.863 606.479, 689.751 605.893 C689.722 605.309, 689.694 604.725, 689.665 604.141 C689.723 603.574, 689.781 603.006, 689.839 602.439 C689.978 601.902, 690.117 601.364, 690.257 600.827 C690.476 600.333, 690.695 599.838, 690.914 599.343 C691.208 598.905, 691.502 598.466, 691.795 598.027 C692.156 597.654, 692.517 597.282, 692.878 596.909 C692.878 596.909, 692.878 596.909, 692.878 596.909 Z "
     stroke="black"
     stroke-width="1"
     fill="none"
     id="path2" />
  <circle
     cx="132.09"
     cy="570.591"
     r="9.44882"
     stroke="black"
     stroke-width="1"
     fill="none"
     id="circle2" />
  <circle
     cx="198.232"
     cy="685.151"
     r="9.44882"
     stroke="black"
     stroke-width="1"
     fill="none"
     id="circle3" />
  <circle
     cx="804.726"
     cy="182.244"
     r="9.44882"
     stroke="black"
     stroke-width="1"
     fill="none"
     id="circle4" />
  <circle
     cx="870.868"
     cy="296.805"
     r="9.44882"
     stroke="black"
     stroke-width="1"
     fill="none"
     id="circle5" />
  <circle
     cx="198.233"
     cy="182.245"
     r="9.44882"
     stroke="black"
     stroke-width="1"
     fill="none"
     id="circle6" />
  <circle
     cx="132.091"
     cy="296.806"
     r="9.44882"
     stroke="black"
     stroke-width="1"
     fill="none"
     id="circle7" />
  <circle
     cx="870.869"
     cy="570.592"
     r="9.44882"
     stroke="black"
     stroke-width="1"
     fill="none"
     id="circle8" />
  <circle
     cx="804.727"
     cy="685.153"
     r="9.44882"
     stroke="black"
     stroke-width="1"
     fill="none"
     id="circle9" />
  <circle
     cx="567.624"
     cy="45.3528"
     r="9.44882"
     stroke="black"
     stroke-width="1"
     fill="none"
     id="circle10" />
  <circle
     cx="435.34"
     cy="45.3528"
     r="9.44882"
     stroke="black"
     stroke-width="1"
     fill="none"
     id="circle11" />
  <circle
     cx="567.624"
     cy="822.046"
     r="9.44882"
     stroke="black"
     stroke-width="1"
     fill="none"
     id="circle12" />
  <circle
     cx="435.34"
     cy="822.046"
     r="9.44882"
     stroke="black"
     stroke-width="1"
     fill="none"
     id="circle13" />
</svg>
